<?xml version="1.0" encoding="UTF-8"?>
<!DOCTYPE svg PUBLIC "-//W3C//DTD SVG 1.1//EN" "http://www.w3.org/Graphics/SVG/1.1/DTD/svg11.dtd">
<!-- Creator: CorelDRAW 2021 (64-Bit) -->
<svg xmlns="http://www.w3.org/2000/svg" xml:space="preserve" width="3510px" height="312px" version="1.1" style="shape-rendering:geometricPrecision; text-rendering:geometricPrecision; image-rendering:optimizeQuality; fill-rule:evenodd; clip-rule:evenodd"
viewBox="0 0 3510 312.01"
 xmlns:xlink="http://www.w3.org/1999/xlink"
 xmlns:xodm="http://www.corel.com/coreldraw/odm/2003">
 <defs>
  <style type="text/css">
   <![CDATA[
    .fil0 {fill:#2B2A29;fill-rule:nonzero}
   ]]>
  </style>
 </defs>
 <g id="Слой_x0020_1">
  <metadata id="CorelCorpID_0Corel-Layer"/>
  <g id="_2391157979040">
   <path class="fil0" d="M53.58 221.32c0,3.25 0.16,5.4 0.47,6.45 0.31,1 1.01,1.52 2.18,1.52 0.51,0 1.56,-0.16 3.08,-0.47 1.51,-0.32 3.11,-0.68 4.82,-1.16 1.71,-0.47 3.35,-0.89 4.91,-1.36 1.55,-0.47 2.6,-0.84 3.15,-1.15 8.06,-2.05 15.8,-4.93 23.24,-8.55 7.47,-3.61 14.44,-7.86 20.94,-12.74 6.5,-4.87 12.41,-10.27 17.71,-16.19 5.33,-5.93 9.88,-12.22 13.7,-18.83 3.81,-6.6 6.73,-13.47 8.83,-20.65 2.11,-7.18 3.16,-14.36 3.16,-21.65 0,-7.08 -1.68,-13.58 -4.99,-19.61 -3.3,-5.97 -8.13,-11.16 -14.48,-15.51 -6.34,-4.36 -14.12,-7.71 -23.35,-10.17 -9.26,-2.47 -19.81,-3.73 -31.64,-3.73 -3.27,0 -5.96,0.21 -8.06,0.58 -2.1,0.32 -3.78,0.89 -5.02,1.68 -1.25,0.73 -2.18,1.68 -2.73,2.83 -0.58,1.1 -0.97,2.46 -1.2,3.98 -0.74,4.2 -1.52,8.92 -2.3,14.05 -0.74,5.19 -1.48,10.43 -2.22,15.83 -0.7,5.4 -1.4,10.7 -2.02,15.99 -0.67,5.25 -1.25,10.12 -1.79,14.58 -0.51,4.45 -0.98,8.33 -1.37,11.69 -0.38,3.3 -0.7,5.71 -0.89,7.13 -0.39,3.04 -0.82,7.13 -1.29,12.21 -0.42,5.03 -0.89,10.28 -1.28,15.68 -0.43,5.34 -0.78,10.53 -1.09,15.57 -0.31,5.03 -0.47,9.01 -0.47,12zm-29.31 9.18c0.39,-2.68 0.78,-5.82 1.21,-9.44 0.43,-3.62 0.78,-7.6 1.09,-11.9 0.16,-2.88 0.47,-6.71 0.97,-11.59 0.47,-4.87 1.05,-10.32 1.64,-16.35 0.62,-6.03 1.28,-12.48 2.06,-19.35 0.74,-6.86 1.52,-13.73 2.3,-20.49 0.74,-6.82 1.52,-13.42 2.26,-19.77 0.77,-6.34 1.44,-12.06 2.06,-17.14 0.62,-5.03 1.13,-9.23 1.59,-12.58 0.47,-3.31 0.74,-5.4 0.9,-6.19 -0.66,0.11 -1.71,0.26 -3.08,0.53 -1.36,0.26 -2.84,0.52 -4.39,0.83 -1.56,0.32 -3.08,0.69 -4.56,1.05 -1.48,0.42 -2.65,0.84 -3.46,1.26 -2.22,0.89 -4.21,1.52 -5.92,1.78 -1.75,0.27 -3.27,0.37 -4.59,0.37 -4.79,0 -8.33,-1.2 -10.7,-3.51 -2.38,-2.36 -3.55,-5.3 -3.55,-8.76 0,-4.61 1.09,-8.59 3.31,-11.95 2.22,-3.3 5.02,-5.76 8.45,-7.44 4.01,-1.94 8.91,-3.67 14.63,-5.3 5.76,-1.57 11.91,-2.93 18.49,-4.03 6.58,-1.16 13.39,-2 20.4,-2.63 7.04,-0.62 13.82,-0.94 20.35,-0.94 9.07,0 17.09,0.52 24.14,1.47 7.04,1 13.43,2.36 19.15,4.09 5.76,1.73 10.94,3.82 15.64,6.29 4.67,2.46 9.11,5.19 13.39,8.12 4.64,3.31 8.76,7.19 12.38,11.75 3.58,4.56 6.66,9.49 9.11,14.78 2.49,5.24 4.36,10.85 5.64,16.72 1.29,5.87 1.95,11.85 1.95,17.88 0,6.45 -0.74,13.05 -2.22,19.82 -1.48,6.76 -3.66,13.52 -6.46,20.34 -2.8,6.81 -6.23,13.52 -10.32,20.13 -4.04,6.6 -8.71,12.95 -13.97,18.97 -4.55,5.25 -9.26,9.91 -14.09,14.05 -4.82,4.15 -9.73,7.87 -14.75,11.22 -5.02,3.31 -10.04,6.29 -15.1,8.97 -5.06,2.67 -10.12,5.08 -15.1,7.23 -5.73,2.57 -11.41,4.82 -17.05,6.76 -5.69,1.94 -11.14,3.57 -16.31,4.93 -5.22,1.31 -10.12,2.36 -14.71,3.04 -4.6,0.74 -8.72,1.1 -12.38,1.1 -1.91,0 -3.74,-0.57 -5.49,-1.62 -1.75,-1.1 -3.27,-2.57 -4.59,-4.46 -1.37,-1.89 -2.42,-4.09 -3.2,-6.6 -0.81,-2.52 -1.2,-5.14 -1.2,-7.92 0,-1.1 0.15,-2.25 0.5,-3.35 0.35,-1.16 0.74,-2.31 1.21,-3.46 0.43,-1.21 0.89,-2.36 1.36,-3.46 0.47,-1.16 0.78,-2.26 1.01,-3.41l0 0.16zm259.31 -60.66c-1.05,-1.41 -2.22,-3.04 -3.46,-4.93 -1.29,-1.83 -2.38,-3.93 -3.39,-6.29 -0.89,-2.15 -1.63,-4.3 -2.22,-6.45 -0.54,-2.14 -0.97,-4.14 -1.24,-6.08 -0.28,-1.88 -0.47,-3.61 -0.59,-5.19 -0.11,-1.57 -0.19,-2.98 -0.27,-4.24 -1.44,0.31 -3.07,1.05 -4.86,2.15 -1.76,1.15 -3.55,2.51 -5.34,4.08 -1.79,1.58 -3.46,3.26 -5.02,4.99 -1.55,1.73 -2.88,3.35 -3.93,4.77 -2.22,3.09 -4.2,6.13 -5.95,9.12 -1.72,3.04 -3.35,6.13 -4.83,9.38 -1.48,3.2 -2.92,6.61 -4.28,10.12 -1.36,3.57 -2.8,7.44 -4.32,11.74 -0.63,1.68 -1.17,3.67 -1.6,6.03 -0.46,2.36 -0.85,4.82 -1.21,7.45 -0.35,2.62 -0.62,5.19 -0.81,7.81 -0.16,2.62 -0.28,4.93 -0.28,7.02 0,0.89 0.2,2.1 0.63,3.51 0.43,1.42 0.97,2.78 1.67,4.09 0.66,1.26 1.44,2.36 2.26,3.31 0.86,0.89 1.67,1.36 2.53,1.36 3.5,0 6.5,-0.16 9.07,-0.37 2.53,-0.26 4.94,-0.89 7.24,-1.78 2.26,-0.94 4.55,-2.31 6.81,-4.09 2.3,-1.78 4.9,-4.19 7.9,-7.29 2.88,-2.98 5.49,-6.45 7.86,-10.53 2.34,-4.04 4.36,-8.18 6.04,-12.48 1.67,-4.3 2.99,-8.49 3.93,-12.63 0.97,-4.09 1.44,-7.55 1.44,-10.44l-3.78 -4.14zm86.45 -9.38c0,4.72 -2.26,10.17 -6.73,16.3 -2.53,3.36 -5.3,6.34 -8.37,8.81 -3.12,2.51 -6.31,4.66 -9.65,6.39 -3.35,1.73 -6.7,3.04 -10.09,3.94 -3.38,0.84 -6.57,1.31 -9.53,1.31 -1.67,0 -3.46,-0.21 -5.37,-0.58 -1.87,-0.37 -3.78,-0.89 -5.65,-1.57 -1.83,-0.74 -3.62,-1.58 -5.33,-2.47 -1.71,-0.94 -3.27,-1.99 -4.63,-3.25 -0.74,11.38 -3.35,21.5 -7.83,30.36 -4.43,8.86 -10.85,17.4 -19.3,25.68 -6.07,5.98 -13.2,10.33 -21.29,13.16 -8.1,2.83 -16.47,4.2 -25.15,4.2 -2.25,0 -4.51,-0.63 -6.69,-1.89 -2.22,-1.31 -4.32,-2.99 -6.31,-5.09 -1.94,-2.09 -3.81,-4.51 -5.52,-7.18 -1.72,-2.72 -3.2,-5.55 -4.44,-8.49 -1.25,-2.88 -2.22,-5.82 -2.92,-8.76 -0.66,-2.88 -1.01,-5.55 -1.01,-7.91 0,-8.18 0.66,-15.83 1.94,-22.91 1.29,-7.13 3.12,-13.94 5.53,-20.45 2.37,-6.5 5.26,-12.89 8.6,-19.18 3.35,-6.29 7.05,-12.79 11.06,-19.45 2.37,-3.88 5.29,-7.66 8.72,-11.38 3.46,-3.67 7.12,-6.97 10.9,-9.8 3.81,-2.88 7.62,-5.19 11.52,-7.03 3.89,-1.78 7.39,-2.67 10.5,-2.67 3.04,0 6.08,0.26 9.15,0.79 3.12,0.52 6.04,1.78 8.8,3.82 2.76,2.05 5.29,5.14 7.59,9.23 2.26,4.09 4.12,9.7 5.56,16.88 0.63,2.99 1.1,5.61 1.41,7.92 0.27,2.3 0.77,4.03 1.47,5.13 1.06,1.73 2.3,3.52 3.74,5.3 1.44,1.78 3.08,3.41 4.91,4.87 1.83,1.42 3.85,2.57 6.07,3.52 2.18,0.89 4.59,1.36 7.16,1.36 2.69,0 5.33,-0.26 7.98,-0.73 2.69,-0.53 5.22,-1.26 7.67,-2.26 2.41,-0.94 4.67,-2.2 6.69,-3.67 2.07,-1.47 3.82,-3.14 5.26,-4.98 0.78,-1.05 1.44,-1.94 2.06,-2.72 0.62,-0.74 1.21,-1.42 1.83,-2 0.58,-0.57 1.28,-0.94 2.02,-1.2 0.78,-0.26 1.64,-0.42 2.65,-0.42 0.82,0 1.56,0.36 2.18,1.05 0.58,0.63 1.09,1.41 1.52,2.36 0.43,0.94 0.74,1.88 0.97,2.93 0.23,1 0.35,1.94 0.35,2.73zm258.18 1.1c0,2.99 -0.5,6.03 -1.44,9.23 -0.97,3.14 -2.14,6.23 -3.58,9.27 -1.44,2.99 -2.96,5.88 -4.52,8.5 -1.55,2.67 -2.99,5.03 -4.28,7.07 -3.11,5.04 -6.42,10.12 -9.96,15.31 -3.54,5.14 -7.28,10.17 -11.25,14.94 -3.93,4.82 -8.1,9.39 -12.42,13.63 -4.36,4.25 -8.87,7.92 -13.58,11.06 -4.71,3.1 -9.58,5.56 -14.64,7.34 -5.06,1.79 -10.27,2.73 -15.68,2.73 -4.32,0 -8.37,-0.73 -12.15,-2.1 -3.77,-1.36 -7,-3.98 -9.77,-7.81 -2.72,-3.88 -4.9,-9.12 -6.5,-15.83 -1.59,-6.71 -2.37,-15.36 -2.37,-25.9 0,-2.36 0.16,-5.24 0.47,-8.75 0.27,-3.46 0.7,-7.18 1.24,-11.12 0.51,-3.93 1.17,-7.91 1.87,-11.84 0.74,-3.94 1.56,-7.5 2.45,-10.65 -0.54,1.21 -1.48,3.41 -2.84,6.61 -1.36,3.14 -2.84,6.5 -4.4,10.12 -1.55,3.56 -3.03,6.97 -4.4,10.11 -1.36,3.2 -2.33,5.4 -2.95,6.61 -2.65,5.24 -5.76,10.96 -9.35,17.14 -3.58,6.19 -7.51,11.9 -11.79,17.2 -4.32,5.29 -8.83,9.7 -13.62,13.21 -4.79,3.51 -9.77,5.29 -14.95,5.29 -2.53,0 -5.14,-0.73 -7.86,-2.15 -2.77,-1.41 -5.3,-3.72 -7.59,-6.92 -2.34,-3.14 -4.24,-7.34 -5.72,-12.53 -1.48,-5.13 -2.22,-11.42 -2.22,-18.76 0,-1.47 0.15,-4.04 0.46,-7.71 0.32,-3.67 0.67,-7.71 1.02,-12.06 0.39,-4.35 0.81,-8.65 1.24,-12.89 0.47,-4.25 0.82,-7.6 1.05,-10.07 -0.7,1.94 -1.55,4.35 -2.57,7.13 -1.01,2.83 -2.14,5.82 -3.3,9.02 -1.17,3.14 -2.42,6.39 -3.66,9.75 -1.25,3.3 -2.45,6.45 -3.58,9.33 -1.13,2.94 -2.22,5.56 -3.2,7.92 -0.97,2.36 -1.82,4.14 -2.49,5.4 -7.08,12.89 -14.48,22.43 -22.14,28.57 -7.67,6.13 -16.24,9.22 -25.65,9.22 -3.43,0 -6.93,-0.78 -10.51,-2.25 -3.55,-1.47 -6.82,-3.78 -9.73,-6.82 -2.92,-3.09 -5.34,-7.02 -7.21,-11.74 -1.83,-4.77 -2.76,-10.43 -2.76,-16.98 0,-2.15 0.16,-4.25 0.51,-6.29 0.35,-2.05 1.05,-4.04 2.1,-6.03 0.82,-1.63 2.18,-2.99 3.97,-4.04 1.83,-1.1 3.42,-1.63 4.82,-1.63 3.27,0 6.04,1.52 8.37,4.62 2.3,3.09 3.55,7.13 3.7,12.11 0.08,2.25 0.51,4.14 1.32,5.61 0.78,1.52 1.72,2.72 2.81,3.61 1.05,0.95 2.18,1.58 3.35,2 1.16,0.42 2.21,0.63 3.15,0.63 3.11,-0.53 6.11,-1.84 8.99,-3.99 2.88,-2.15 5.68,-4.82 8.33,-8.07 2.65,-3.2 5.18,-6.87 7.59,-10.96 2.37,-4.14 4.63,-8.33 6.73,-12.68 2.07,-4.36 4.01,-8.71 5.8,-13.06 1.79,-4.35 3.35,-8.44 4.75,-12.21 1.87,-5.25 3.78,-9.86 5.64,-13.84 1.83,-3.99 3.66,-7.55 5.45,-10.64 1.8,-3.15 3.55,-5.88 5.26,-8.18 1.71,-2.31 3.35,-4.3 4.94,-6.03 0.31,-0.32 0.94,-0.79 1.91,-1.31 0.93,-0.58 1.95,-1.1 3,-1.63 1.09,-0.52 2.14,-0.94 3.15,-1.31 1.01,-0.36 1.75,-0.52 2.22,-0.52 0.89,0 2.06,0.1 3.46,0.36 1.44,0.27 2.77,0.84 4.05,1.68 1.32,0.89 2.41,2.2 3.31,3.93 0.93,1.73 1.4,4.09 1.4,7.08 0,3.46 -0.12,6.13 -0.35,7.97 -0.23,1.83 -0.55,3.67 -0.93,5.56 -0.51,3.04 -0.98,6.5 -1.37,10.32 -0.39,3.88 -0.7,7.76 -0.97,11.8 -0.27,3.98 -0.43,7.97 -0.55,11.95 -0.11,3.99 -0.19,7.71 -0.19,11.22 0,7.65 0.39,13.58 1.13,17.67 0.78,4.09 1.83,6.13 3.23,6.13 1.95,0 3.85,-0.52 5.64,-1.52 1.75,-1.05 3.39,-2.25 4.91,-3.72 1.48,-1.42 2.72,-2.88 3.81,-4.35 1.05,-1.47 1.87,-2.62 2.38,-3.46 3.89,-5.93 7.98,-12.58 12.33,-19.98 4.33,-7.39 8.49,-14.83 12.46,-22.43 4.01,-7.55 7.67,-14.94 11.02,-22.13 3.34,-7.13 5.99,-13.47 7.98,-19.03 0.62,-1.62 1.4,-3.3 2.33,-4.98 0.97,-1.67 2.06,-3.25 3.31,-4.66 1.24,-1.47 2.69,-2.62 4.24,-3.57 1.56,-0.89 3.15,-1.36 4.83,-1.36 0.7,0 1.67,0.31 2.92,1 1.24,0.68 2.49,1.57 3.7,2.77 1.2,1.16 2.29,2.57 3.19,4.15 0.89,1.57 1.36,3.3 1.36,5.13 0,0.95 -0.12,2.26 -0.39,3.99 -0.27,1.73 -0.62,3.82 -1.09,6.29 -0.58,3.3 -1.13,6.34 -1.52,9.23 -0.43,2.88 -0.97,6.23 -1.67,10.11 -0.62,3.41 -1.21,7.24 -1.83,11.54 -0.58,4.29 -1.17,8.8 -1.71,13.52 -0.51,4.72 -0.94,9.54 -1.25,14.52 -0.31,4.93 -0.47,9.75 -0.47,14.37 0,5.5 0.51,10.01 1.44,13.52 0.94,3.46 2.14,6.19 3.55,8.13 1.4,1.94 2.92,3.25 4.59,3.88 1.67,0.68 3.19,1.05 4.59,1.05 3.62,0 7.79,-1.16 12.46,-3.46 4.71,-2.31 9.53,-5.4 14.48,-9.34 4.98,-3.87 9.88,-8.33 14.71,-13.36 4.83,-4.98 9.19,-10.23 13.08,-15.63 1.21,-1.78 2.53,-3.77 3.97,-6.08 1.48,-2.3 2.96,-4.77 4.48,-7.44 1.75,-2.99 3.62,-6.03 5.68,-9.17 2.06,-3.1 4.28,-6.19 6.62,-9.28 0.97,-1.32 1.9,-2.36 2.72,-3.15 0.86,-0.73 1.79,-1.15 2.88,-1.15 1.21,0 2.34,0.57 3.39,1.62 1.09,1.1 1.63,2.99 1.63,5.77zm173.33 -23.33c0,8.86 -0.59,17.51 -1.79,25.85 -1.17,8.33 -2.77,16.35 -4.79,23.95 -2.03,7.66 -4.4,14.89 -7.12,21.81 -2.73,6.92 -5.69,13.37 -8.88,19.29 -3.19,5.93 -6.89,11.48 -11.09,16.57 -4.17,5.14 -8.68,9.59 -13.51,13.37 -4.83,3.82 -9.92,6.76 -15.33,8.86 -5.37,2.09 -10.9,3.14 -16.55,3.14 -3.27,0 -6.5,-1.31 -9.69,-3.88 -3.19,-2.51 -6.07,-6.18 -8.64,-10.95 -2.61,-4.77 -4.67,-10.49 -6.27,-17.2 -1.59,-6.71 -2.41,-14.21 -2.41,-22.49 0,-5.98 0.35,-12.16 1.09,-18.66 0.7,-6.5 2.14,-13.27 4.28,-20.29 2.1,-7.02 5.1,-14.31 8.95,-21.86 3.82,-7.6 8.84,-15.41 14.99,-23.54 3.81,-4.87 7.82,-9.07 12.03,-12.48 4.2,-3.46 8.33,-6.23 12.3,-8.38 4.01,-2.15 7.74,-3.72 11.21,-4.67 3.42,-1 6.34,-1.47 8.72,-1.47 0.07,0 0.42,0 1.12,0 0.71,0 1.41,0.06 2.18,0.16 -1.16,-6.66 -2.76,-12.84 -4.86,-18.45 -2.1,-5.61 -4.44,-10.49 -7.01,-14.58 -2.57,-4.08 -5.33,-7.34 -8.21,-9.7 -2.88,-2.35 -5.72,-3.51 -8.56,-3.51 -0.82,0 -1.79,0.06 -2.84,0.16 -1.06,0.11 -2.14,0.26 -3.2,0.42 -1.05,0.21 -2.1,0.47 -3.15,0.73 -1.01,0.27 -1.91,0.53 -2.65,0.84 -0.7,0.32 -1.55,0.63 -2.64,1.05 -1.05,0.42 -2.18,0.84 -3.35,1.31 -1.17,0.47 -2.3,0.84 -3.39,1.15 -1.05,0.32 -1.87,0.48 -2.49,0.48 -0.97,0 -1.94,-0.32 -2.84,-1 -0.93,-0.68 -1.71,-1.47 -2.41,-2.46 -0.66,-1 -1.25,-2.1 -1.64,-3.31 -0.43,-1.2 -0.62,-2.41 -0.62,-3.51 0,-1.68 0.39,-3.3 1.24,-5.03 0.82,-1.68 1.87,-3.3 3.12,-4.82 1.28,-1.52 2.65,-2.99 4.13,-4.3 1.47,-1.31 2.84,-2.47 4.04,-3.36 2.88,-1.83 6.19,-3.35 9.93,-4.45 3.7,-1.16 8.33,-1.68 13.78,-1.68 6.3,0 12.61,2.41 18.95,7.34 6.31,4.93 11.95,12 16.97,21.18 5.03,9.22 9.07,20.44 12.23,33.65 3.11,13.21 4.67,28.1 4.67,44.72zm-24.41 9.49c0,-2.26 -0.04,-5.14 -0.11,-8.76 -0.08,-3.56 -0.43,-6.92 -1.05,-9.96 -3.47,0.58 -7.21,1.89 -11.18,3.88 -3.93,2.05 -7.82,4.62 -11.67,7.87 -3.86,3.19 -7.48,7.02 -10.94,11.37 -3.46,4.35 -6.5,9.23 -9.07,14.63 -2.8,5.97 -5.06,11.43 -6.73,16.46 -1.68,5.03 -2.96,9.7 -3.82,14.05 -0.89,4.35 -1.44,8.44 -1.71,12.27 -0.27,3.88 -0.39,7.55 -0.39,11.16 0,1.94 0.15,4.09 0.43,6.45 0.31,2.36 0.78,4.51 1.4,6.5 0.58,1.99 1.32,3.72 2.22,5.09 0.85,1.36 1.87,2.09 3,2.09 1.43,0 2.87,-0.05 4.28,-0.15 1.4,-0.11 2.88,-0.48 4.39,-1.11 1.52,-0.62 3.16,-1.57 4.91,-2.83 1.75,-1.25 3.7,-3.09 5.8,-5.45 3.11,-3.41 6.03,-7.29 8.72,-11.74 2.72,-4.46 5.17,-9.17 7.43,-14.21 2.26,-5.03 4.24,-10.17 6,-15.46 1.75,-5.25 3.23,-10.43 4.43,-15.52 1.21,-5.03 2.14,-9.86 2.73,-14.42 0.62,-4.56 0.93,-8.59 0.93,-12.21zm112.41 -3.2c-0.15,-1.78 -0.46,-3.35 -0.89,-4.77 -0.47,-1.42 -1.44,-2.15 -2.96,-2.15 -3.08,0 -5.88,1.68 -8.45,5.09 -2.6,3.35 -5.02,7.91 -7.24,13.73 -2.25,5.77 -4.28,12.48 -6.11,20.18 -1.83,7.66 -3.5,15.94 -5.02,24.75 0.62,-0.63 1.33,-1.47 2.1,-2.47 0.82,-1.04 1.6,-2.09 2.42,-3.14 0.77,-1.1 1.55,-2.1 2.25,-3.09 0.74,-0.95 1.33,-1.79 1.79,-2.36 4.56,-6.45 8.3,-12.06 11.18,-16.83 2.88,-4.77 5.13,-8.91 6.77,-12.43 1.63,-3.56 2.76,-6.6 3.31,-9.22 0.58,-2.62 0.85,-5.03 0.85,-7.29zm84.51 15.78c0,0.94 -0.28,2.67 -0.78,5.24 -0.55,2.57 -1.52,5.09 -3,7.55 -8.64,14.84 -17.13,28.73 -25.42,41.68 -8.29,12.95 -16.42,24.22 -24.4,33.81 -7.98,9.54 -15.8,17.09 -23.43,22.65 -7.63,5.5 -15.11,8.28 -22.42,8.28 -6.81,0 -12.73,-1.47 -17.67,-4.45 -4.95,-2.99 -9.03,-7.13 -12.27,-12.53 -3.23,-5.35 -5.6,-11.85 -7.12,-19.4 -1.52,-7.6 -2.26,-15.99 -2.26,-25.22 0,-6.97 0.47,-14.31 1.4,-22.12 0.98,-7.76 2.42,-15.57 4.37,-23.33 1.9,-7.81 4.39,-15.41 7.39,-22.91 3,-7.44 6.54,-14.31 10.66,-20.55 1.76,-2.67 3.82,-5.29 6.16,-7.86 2.37,-2.52 4.86,-4.82 7.55,-6.81 2.64,-2 5.41,-3.62 8.29,-4.93 2.92,-1.26 5.72,-1.89 8.44,-1.89 3.2,0 6.15,0.84 8.84,2.57 2.72,1.78 5.02,4.04 6.89,6.87 1.91,2.83 3.39,6.02 4.48,9.64 1.05,3.67 1.59,7.39 1.59,11.33 0,3.98 -0.51,8.44 -1.56,13.36 -1.01,4.88 -2.57,10.02 -4.59,15.36 -2.06,5.3 -4.59,10.7 -7.59,16.1 -3,5.45 -6.46,10.64 -10.31,15.67 -1.44,1.84 -3.24,3.99 -5.34,6.45 -2.06,2.46 -4.32,5.09 -6.73,7.81 -2.37,2.78 -4.87,5.56 -7.43,8.39 -2.61,2.83 -5.06,5.4 -7.44,7.76 0.08,2.25 0.47,4.56 1.13,6.97 0.7,2.41 1.71,4.61 3.11,6.61 1.37,1.99 3.12,3.67 5.22,4.92 2.14,1.26 4.67,1.94 7.67,1.94 5.37,0 11.25,-2.57 17.55,-7.6 6.31,-5.08 12.92,-11.74 19.85,-20.08 6.89,-8.28 14.02,-17.72 21.37,-28.3 7.32,-10.59 14.71,-21.45 22.19,-32.51 1.05,-1.62 2.41,-3.3 4.08,-5.03 1.68,-1.78 3.66,-2.62 5.96,-2.62 0.43,0 0.97,0.16 1.63,0.52 0.67,0.37 1.25,0.89 1.83,1.52 0.59,0.68 1.06,1.47 1.48,2.31 0.43,0.89 0.63,1.83 0.63,2.83z"/>
   <path class="fil0" d="M1207.12 159.88c0,0.89 -0.15,2.1 -0.51,3.57 -0.35,1.52 -0.77,3.09 -1.32,4.77 -0.51,1.73 -1.17,3.4 -1.87,5.13 -0.74,1.79 -1.44,3.41 -2.1,4.93 -1.25,2.57 -2.88,5.56 -4.9,8.91 -2.07,3.41 -4.36,6.92 -6.85,10.59 -2.53,3.72 -5.18,7.39 -7.98,11.07 -2.81,3.72 -5.61,7.12 -8.33,10.27 -2.22,2.46 -4.79,5.19 -7.75,8.18 -2.96,2.93 -6.15,5.71 -9.46,8.28 -3.34,2.57 -6.77,4.67 -10.23,6.4 -3.47,1.67 -6.78,2.51 -9.97,2.51 -2.96,0 -5.84,-0.78 -8.6,-2.36 -2.8,-1.62 -5.37,-4.61 -7.75,-9.01 -2.41,-4.41 -4.51,-10.54 -6.34,-18.4 -1.83,-7.92 -3.27,-18.14 -4.32,-30.72 -0.08,-1.26 -0.2,-3.15 -0.31,-5.77 -0.12,-2.62 -0.24,-5.24 -0.31,-7.86 -0.12,-2.57 -0.28,-4.88 -0.43,-6.82 -0.16,-1.94 -0.31,-2.93 -0.43,-2.93 -0.62,0 -1.64,1.25 -3.04,3.72 -1.4,2.41 -3.07,5.66 -5.02,9.75 -1.94,4.03 -4.05,8.7 -6.34,13.94 -2.26,5.3 -4.63,10.75 -7.05,16.36 -3.03,7.18 -5.91,13.63 -8.6,19.29 -2.72,5.66 -5.25,10.43 -7.67,14.26 -2.37,3.88 -4.71,6.81 -6.93,8.86 -2.25,2.04 -4.51,3.04 -6.81,3.04 -3.5,0 -6.34,-0.89 -8.52,-2.67 -2.22,-1.79 -3.97,-4.56 -5.26,-8.29 -1.28,-3.72 -2.21,-8.54 -2.76,-14.41 -0.51,-5.93 -0.86,-12.9 -1.01,-20.97 -0.24,-13.53 -0.55,-24.06 -0.97,-31.67 -0.43,-7.55 -1.02,-11.37 -1.76,-11.37 -0.93,0 -2.45,1.62 -4.55,4.77 -2.14,3.2 -4.67,7.55 -7.59,13.05 -2.92,5.56 -6.11,12.06 -9.58,19.5 -3.46,7.5 -7.04,15.52 -10.66,24.12 -0.94,2.25 -2.02,4.87 -3.31,7.86 -1.28,2.94 -2.65,5.98 -4.01,9.07 -1.36,3.04 -2.72,6.03 -4.05,8.86 -1.32,2.88 -2.53,5.35 -3.58,7.39 -1.36,2.68 -3.03,4.67 -5.02,6.08 -1.98,1.37 -4.05,2.05 -6.27,2.05 -3.11,0 -5.76,-0.89 -7.98,-2.68 -2.21,-1.78 -4,-4.24 -5.37,-7.28 -1.36,-3.1 -2.37,-6.71 -2.99,-10.91 -0.67,-4.19 -0.98,-8.65 -0.98,-13.36 0,-4.2 0.08,-7.97 0.2,-11.38 0.15,-3.36 0.39,-6.76 0.7,-10.22 0.31,-3.41 0.66,-7.03 1.09,-10.8 0.43,-3.78 0.89,-8.13 1.4,-13.06 0.47,-4.3 0.82,-8.86 1.05,-13.57 0.23,-4.77 0.47,-9.44 0.66,-14 0.24,-4.56 0.51,-8.81 0.82,-12.69 0.31,-3.88 0.74,-7.13 1.25,-9.64 0.39,-1.79 0.89,-3.62 1.47,-5.61 0.63,-1.99 1.48,-3.88 2.65,-5.56 1.13,-1.68 2.57,-3.09 4.32,-4.3 1.75,-1.15 3.93,-1.73 6.5,-1.73 2.38,0 4.25,0.58 5.69,1.73 1.47,1.21 2.56,2.78 3.3,4.77 0.78,1.99 1.29,4.3 1.56,6.92 0.27,2.62 0.39,5.35 0.39,8.23 0,2.41 -0.23,5.77 -0.74,9.96 -0.51,4.2 -1.09,8.86 -1.83,13.9 -0.7,5.08 -1.52,10.32 -2.45,15.83 -0.9,5.45 -1.75,10.74 -2.57,15.72 -0.78,5.04 -1.48,9.55 -2.1,13.64 -0.59,4.03 -1.01,7.18 -1.25,9.43 0.16,-0.42 0.59,-1.47 1.33,-3.09 0.7,-1.63 1.59,-3.62 2.6,-5.98 1.02,-2.36 2.1,-4.87 3.27,-7.55 1.13,-2.62 2.22,-5.14 3.23,-7.49 1.02,-2.36 1.91,-4.41 2.69,-6.14 0.74,-1.78 1.21,-2.83 1.36,-3.25 1.36,-3.09 2.96,-6.55 4.79,-10.38 1.83,-3.83 3.74,-7.7 5.72,-11.64 1.95,-3.98 3.93,-7.7 5.84,-11.32 1.95,-3.56 3.74,-6.6 5.33,-9.07 3.43,-5.19 7.05,-9.12 10.86,-11.79 3.85,-2.68 7.94,-3.99 12.26,-3.99 4.67,0 8.53,2.15 11.64,6.45 3.12,4.3 5.22,9.91 6.27,16.88 0.39,2.57 0.7,5.77 0.93,9.7 0.24,3.88 0.39,7.91 0.51,12.16 0.11,4.3 0.19,8.55 0.27,12.85 0.08,4.29 0.16,8.12 0.19,11.53 0.04,3.35 0.08,6.13 0.16,8.28 0.08,2.15 0.23,3.25 0.47,3.25 0.66,0 1.67,-1.31 2.96,-3.88 1.28,-2.57 2.72,-5.76 4.32,-9.64 1.59,-3.94 3.27,-8.13 5.02,-12.64 1.75,-4.45 3.42,-8.65 5.02,-12.42 2.68,-6.03 5.49,-11.85 8.44,-17.41 2.96,-5.61 5.92,-10.53 8.84,-14.78 2.92,-4.25 5.72,-7.6 8.37,-10.12 2.68,-2.51 5.02,-3.77 7.08,-3.77 1.44,0 2.92,0.21 4.44,0.63 1.52,0.42 3,0.99 4.4,1.78 1.4,0.73 2.68,1.68 3.81,2.72 1.13,1.11 2.03,2.31 2.65,3.62 1.28,2.78 2.22,5.82 2.84,9.07 0.59,3.3 1.05,6.92 1.29,10.91 0.27,3.98 0.46,8.38 0.58,13.21 0.12,4.82 0.39,10.11 0.86,15.98 0.85,10.65 2.06,18.98 3.66,25.01 1.59,6.08 3.85,9.07 6.85,9.07 1.28,0 2.95,-0.63 5.06,-1.89 2.1,-1.31 4.35,-2.93 6.85,-4.92 2.45,-2 5.02,-4.25 7.62,-6.71 2.61,-2.47 5.06,-4.88 7.36,-7.34 2.53,-2.68 4.91,-5.4 7.2,-8.23 2.26,-2.84 4.52,-5.72 6.78,-8.71 2.25,-2.93 4.51,-6.03 6.85,-9.28 2.29,-3.19 4.74,-6.6 7.35,-10.22 1.6,-2.15 3.43,-3.2 5.45,-3.2 2.45,0 3.66,2.36 3.66,7.08zm125.65 -5.08c0,1.2 -0.12,2.57 -0.35,4.09 -0.24,1.46 -0.67,3.14 -1.37,4.98 -0.66,1.83 -1.59,3.93 -2.8,6.29 -1.17,2.35 -2.69,5.03 -4.59,7.96 -2.07,3.31 -4.4,6.77 -6.97,10.49 -2.57,3.67 -5.22,7.34 -7.94,10.96 -2.69,3.61 -5.37,7.13 -8.02,10.53 -2.68,3.36 -5.14,6.4 -7.43,9.02 -4.87,5.77 -9.65,11.11 -14.37,16.09 -4.7,4.93 -9.34,9.39 -13.89,13.27 -6.85,5.82 -14.17,10.32 -22.03,13.52 -7.82,3.15 -16.12,4.77 -24.83,4.77 -5.73,0 -10.79,-1.41 -15.18,-4.24 -4.4,-2.83 -8.14,-6.61 -11.18,-11.38 -3.03,-4.72 -5.33,-10.33 -6.89,-16.72 -1.55,-6.4 -2.33,-13.11 -2.33,-20.19 0,-13.42 2.06,-26.89 6.27,-40.47 4.16,-13.57 9.92,-26.89 17.2,-40 1.83,-3.3 3.97,-6.6 6.46,-10.01 2.45,-3.35 5.06,-6.39 7.79,-9.12 2.76,-2.73 5.56,-4.93 8.44,-6.71 2.88,-1.73 5.72,-2.57 8.45,-2.57 1.83,0 3.74,0.42 5.76,1.26 2.02,0.89 4.01,2.2 5.92,3.93 1.94,1.73 3.77,3.93 5.52,6.61 1.75,2.67 3.23,5.81 4.48,9.38 2.41,7.18 3.62,12.37 3.62,15.67 0,1.73 -0.12,3.83 -0.39,6.35 -0.27,2.51 -0.74,4.93 -1.48,7.18 -0.74,2.25 -1.67,4.14 -2.92,5.71 -1.21,1.63 -2.76,2.42 -4.67,2.42 -2.8,0 -5.1,-1.11 -6.89,-3.31 -1.79,-2.2 -3.23,-4.77 -4.32,-7.7 -1.13,-2.89 -2.02,-5.82 -2.69,-8.65 -0.7,-2.89 -1.32,-4.98 -1.94,-6.29 -2.22,0.31 -4.48,1.67 -6.77,4.19 -2.34,2.52 -4.6,5.77 -6.82,9.7 -2.18,3.93 -4.28,8.44 -6.18,13.58 -1.95,5.13 -3.66,10.53 -5.14,16.3 -1.48,5.71 -2.65,11.59 -3.47,17.56 -0.85,5.98 -1.28,11.8 -1.28,17.46 0,5.19 1.4,9.75 4.24,13.63 3.19,4.3 6.15,6.45 8.88,6.45 8.68,0 17.01,-2.15 25.02,-6.45 8.02,-4.3 15.77,-10.02 23.2,-17.2 5.26,-4.98 11.17,-11.16 17.71,-18.4 6.54,-7.28 13.08,-15.2 19.7,-23.8 2.22,-2.88 4.4,-5.76 6.58,-8.7 2.14,-2.94 4.2,-5.56 6.15,-7.92 1.94,-2.36 3.69,-4.24 5.25,-5.76 1.56,-1.47 2.84,-2.2 3.82,-2.2 1.44,0 2.56,0.89 3.42,2.67 0.82,1.78 1.25,3.72 1.25,5.77zm156.35 6.92c0,0.89 -0.39,2.41 -1.17,4.5 -0.74,2.1 -1.79,4.67 -3.19,7.61 -1.36,2.98 -2.96,6.18 -4.83,9.69 -1.86,3.46 -3.89,7.08 -6.11,10.75 -3.5,5.72 -7.12,11.53 -10.89,17.35 -3.74,5.82 -7.67,11.48 -11.8,16.99 -4.08,5.45 -8.33,10.59 -12.65,15.41 -4.32,4.82 -8.8,9.02 -13.35,12.58 -4.55,3.62 -9.22,6.4 -13.97,8.44 -4.75,2.1 -9.54,3.1 -14.4,3.1 -6.39,0 -11.56,-1.26 -15.53,-3.78 -3.94,-2.51 -7.17,-5.87 -9.7,-10.22 -2.49,-4.3 -4.47,-9.28 -5.91,-14.94 -1.44,-5.72 -2.81,-11.69 -4.13,-18.04 -1.13,-5.55 -2.45,-9.38 -3.93,-11.53 -1.48,-2.15 -3,-3.25 -4.59,-3.25 -0.55,0 -1.37,0.21 -2.46,0.58 -1.12,0.31 -2.29,0.78 -3.54,1.36 -1.24,0.58 -2.49,1.21 -3.69,1.94 -1.25,0.68 -2.26,1.47 -3.08,2.31 -0.39,0.26 -0.7,1.1 -0.97,2.51 -0.28,1.37 -0.51,3.62 -0.7,6.66 -0.2,3.09 -0.35,7.18 -0.47,12.32 -0.12,5.09 -0.16,11.53 -0.16,19.34 0,2.47 -0.31,4.51 -0.89,6.19 -0.62,1.73 -1.44,3.09 -2.45,4.19 -1.06,1.05 -2.26,1.84 -3.62,2.31 -1.37,0.42 -2.77,0.68 -4.21,0.68 -2.72,0 -4.98,-0.63 -6.73,-1.94 -1.75,-1.26 -3.12,-3.14 -4.09,-5.61 -1.01,-2.46 -1.67,-5.45 -2.02,-8.96 -0.35,-3.57 -0.51,-7.55 -0.51,-12.06 0,-1.73 0.12,-4.61 0.39,-8.54 0.27,-3.93 0.62,-8.55 1.05,-13.79 0.39,-5.3 0.9,-11.01 1.48,-17.14 0.54,-6.14 1.17,-12.37 1.83,-18.61 0.62,-6.24 1.25,-12.27 1.87,-18.19 0.62,-5.88 1.21,-11.22 1.75,-15.94 0.58,-4.77 1.09,-8.76 1.56,-11.95 0.46,-3.15 0.81,-5.14 1.12,-5.98l-0.11 0.16c0.47,-1.31 1.13,-2.68 1.95,-3.99 0.85,-1.31 1.83,-2.51 2.91,-3.51 1.09,-1.05 2.34,-1.89 3.7,-2.57 1.36,-0.63 2.76,-0.99 4.2,-0.99 1.83,0 3.47,0.57 4.87,1.67 1.4,1.16 2.61,2.57 3.66,4.25 1.01,1.68 1.79,3.51 2.34,5.5 0.5,2.05 0.77,3.88 0.77,5.61 0,3.31 -0.42,7.81 -1.36,13.63 -0.89,5.77 -1.98,12.48 -3.19,20.19 -0.58,3.56 -1.13,6.71 -1.52,9.38 -0.43,2.62 -0.82,5.56 -1.2,8.76 1.05,-0.42 2.33,-0.95 3.81,-1.63 1.48,-0.68 3.08,-1.47 4.75,-2.41 1.63,-0.89 3.35,-1.99 5.1,-3.3 1.75,-1.26 3.42,-2.68 5.02,-4.2 1.36,-1.41 2.84,-3.35 4.4,-5.71 1.55,-2.31 3.15,-4.88 4.75,-7.6 1.59,-2.68 3.15,-5.46 4.71,-8.18 1.55,-2.78 3.03,-5.24 4.39,-7.39 1.13,-1.94 2.3,-3.73 3.47,-5.35 1.2,-1.68 2.22,-3.04 3.03,-4.2 1.44,-1.93 3.04,-3.72 4.75,-5.45 1.72,-1.67 3.43,-3.14 5.18,-4.45 1.75,-1.26 3.46,-2.26 5.14,-2.99 1.67,-0.68 3.15,-1.05 4.43,-1.05 2.22,0 4.17,0.47 5.88,1.36 1.71,0.95 3.15,2.1 4.32,3.57 1.17,1.41 2.07,2.99 2.69,4.72 0.62,1.78 0.89,3.46 0.89,5.08 0,1.26 -0.23,2.62 -0.74,4.25 -0.46,1.57 -1.16,3.14 -2.02,4.72 -0.9,1.62 -1.87,3.04 -2.92,4.24 -1.05,1.21 -2.18,2.1 -3.31,2.62l0.12 0c-2.45,1.1 -4.94,2.99 -7.47,5.67 -2.53,2.67 -5.03,5.92 -7.48,9.69 -1.13,1.73 -2.49,3.67 -4.05,5.77 -1.55,2.1 -3.19,4.19 -4.94,6.34 -1.75,2.15 -3.62,4.25 -5.53,6.3 -1.94,2.04 -3.89,3.93 -5.87,5.55 2.64,2.05 4.94,4.72 6.89,7.97 1.94,3.3 3.34,7.76 4.28,13.37 0.74,4.4 1.55,8.23 2.45,11.43 0.86,3.25 1.91,5.87 3.07,7.86 1.17,1.99 2.57,3.46 4.21,4.46 1.63,0.94 3.62,1.46 5.88,1.46 5.02,0 10.58,-1.83 16.69,-5.4 6.15,-3.56 12.58,-9.54 19.35,-17.82 2.8,-3.35 5.72,-7.13 8.72,-11.22 2.99,-4.09 5.99,-8.28 9.03,-12.63 3,-4.35 5.95,-8.76 8.95,-13.21 2.96,-4.46 5.8,-8.76 8.53,-12.85 0.7,-0.99 1.44,-2.15 2.29,-3.35 0.82,-1.26 1.75,-2.36 2.73,-3.41 1.01,-1 2.06,-1.89 3.27,-2.62 1.16,-0.68 2.45,-1.05 3.81,-1.05 1.52,0 2.72,0.52 3.66,1.52 0.89,1.05 1.36,2.73 1.36,5.09zm51.42 8.12c-1.05,-1.41 -2.22,-3.04 -3.46,-4.93 -1.29,-1.83 -2.38,-3.93 -3.39,-6.29 -0.9,-2.15 -1.64,-4.3 -2.22,-6.45 -0.55,-2.14 -0.97,-4.14 -1.25,-6.08 -0.27,-1.88 -0.46,-3.61 -0.58,-5.19 -0.12,-1.57 -0.2,-2.98 -0.27,-4.24 -1.44,0.31 -3.08,1.05 -4.87,2.15 -1.75,1.15 -3.54,2.51 -5.33,4.08 -1.79,1.58 -3.46,3.26 -5.02,4.99 -1.56,1.73 -2.88,3.35 -3.93,4.77 -2.22,3.09 -4.21,6.13 -5.96,9.12 -1.71,3.04 -3.34,6.13 -4.82,9.38 -1.48,3.2 -2.92,6.61 -4.29,10.12 -1.36,3.57 -2.8,7.44 -4.32,11.74 -0.62,1.68 -1.16,3.67 -1.59,6.03 -0.47,2.36 -0.86,4.82 -1.21,7.45 -0.35,2.62 -0.62,5.19 -0.82,7.81 -0.15,2.62 -0.27,4.93 -0.27,7.02 0,0.89 0.2,2.1 0.62,3.51 0.43,1.42 0.98,2.78 1.68,4.09 0.66,1.26 1.44,2.36 2.26,3.31 0.85,0.89 1.67,1.36 2.53,1.36 3.5,0 6.5,-0.16 9.06,-0.37 2.53,-0.26 4.95,-0.89 7.24,-1.78 2.26,-0.94 4.56,-2.31 6.82,-4.09 2.29,-1.78 4.9,-4.19 7.9,-7.29 2.88,-2.98 5.49,-6.45 7.86,-10.53 2.34,-4.04 4.36,-8.18 6.03,-12.48 1.68,-4.3 3,-8.49 3.93,-12.63 0.98,-4.09 1.44,-7.55 1.44,-10.44l-3.77 -4.14zm86.45 -9.38c0,4.72 -2.26,10.17 -6.74,16.3 -2.53,3.36 -5.29,6.34 -8.36,8.81 -3.12,2.51 -6.31,4.66 -9.66,6.39 -3.35,1.73 -6.69,3.04 -10.08,3.94 -3.38,0.84 -6.58,1.31 -9.53,1.31 -1.68,0 -3.47,-0.21 -5.38,-0.58 -1.87,-0.37 -3.77,-0.89 -5.64,-1.57 -1.83,-0.74 -3.62,-1.58 -5.33,-2.47 -1.72,-0.94 -3.27,-1.99 -4.63,-3.25 -0.74,11.38 -3.35,21.5 -7.83,30.36 -4.43,8.86 -10.86,17.4 -19.3,25.68 -6.08,5.98 -13.2,10.33 -21.3,13.16 -8.09,2.83 -16.46,4.2 -25.14,4.2 -2.26,0 -4.51,-0.63 -6.7,-1.89 -2.21,-1.31 -4.32,-2.99 -6.3,-5.09 -1.95,-2.09 -3.82,-4.51 -5.53,-7.18 -1.71,-2.72 -3.19,-5.55 -4.43,-8.49 -1.25,-2.88 -2.22,-5.82 -2.92,-8.76 -0.67,-2.88 -1.02,-5.55 -1.02,-7.91 0,-8.18 0.67,-15.83 1.95,-22.91 1.29,-7.13 3.11,-13.94 5.53,-20.45 2.37,-6.5 5.25,-12.89 8.6,-19.18 3.35,-6.29 7.04,-12.79 11.05,-19.45 2.38,-3.88 5.3,-7.66 8.72,-11.38 3.47,-3.67 7.12,-6.97 10.9,-9.8 3.81,-2.88 7.63,-5.19 11.52,-7.03 3.89,-1.78 7.4,-2.67 10.51,-2.67 3.04,0 6.07,0.26 9.15,0.79 3.11,0.52 6.03,1.78 8.8,3.82 2.76,2.05 5.29,5.14 7.59,9.23 2.25,4.09 4.12,9.7 5.56,16.88 0.62,2.99 1.09,5.61 1.4,7.92 0.28,2.3 0.78,4.03 1.48,5.13 1.05,1.73 2.3,3.52 3.74,5.3 1.44,1.78 3.07,3.41 4.9,4.87 1.83,1.42 3.86,2.57 6.07,3.52 2.18,0.89 4.6,1.36 7.17,1.36 2.68,0 5.33,-0.26 7.98,-0.73 2.68,-0.53 5.21,-1.26 7.66,-2.26 2.42,-0.94 4.67,-2.2 6.7,-3.67 2.06,-1.47 3.81,-3.14 5.25,-4.98 0.78,-1.05 1.44,-1.94 2.07,-2.72 0.62,-0.74 1.2,-1.42 1.83,-2 0.58,-0.57 1.28,-0.94 2.02,-1.2 0.78,-0.26 1.63,-0.42 2.65,-0.42 0.81,0 1.55,0.36 2.18,1.05 0.58,0.63 1.09,1.41 1.51,2.36 0.43,0.94 0.74,1.88 0.98,2.93 0.23,1 0.35,1.94 0.35,2.73zm131.91 -3.67c0,1.31 -0.58,3.3 -1.75,5.82 -1.17,2.57 -2.77,5.61 -4.75,9.07 -1.95,3.51 -4.24,7.23 -6.81,11.32 -2.61,4.04 -5.26,8.18 -7.98,12.48 -1.91,2.98 -4.52,6.76 -7.83,11.37 -3.3,4.62 -6.92,9.44 -10.89,14.47 -3.94,4.98 -7.98,9.91 -12.07,14.79 -4.13,4.87 -7.94,9.12 -11.4,12.68 -4.36,4.41 -8.37,8.02 -12.07,10.8 -3.66,2.83 -7.32,5.09 -10.94,6.71 -3.62,1.63 -7.28,2.78 -11.05,3.46 -3.78,0.63 -7.9,1 -12.38,1 -3.19,0 -6.38,-0.79 -9.61,-2.31 -3.23,-1.52 -6.19,-3.67 -8.84,-6.45 -2.69,-2.78 -4.87,-6.08 -6.5,-10.01 -1.67,-3.88 -2.53,-8.18 -2.53,-12.9 0,-6.65 0.93,-12.95 2.84,-18.87 1.91,-5.92 4.17,-11.37 6.81,-16.3 2.61,-4.88 5.3,-9.23 8.1,-12.95 2.76,-3.72 5.06,-6.76 6.89,-8.97 3.5,-4.35 6.46,-8.7 8.87,-13.16 2.45,-4.45 3.66,-8.64 3.66,-12.52 0,-2.05 -0.46,-3.52 -1.36,-4.36 -0.9,-0.89 -1.75,-1.3 -2.49,-1.3 -1.17,0 -2.57,0.47 -4.24,1.46 -1.68,0.95 -3.47,2.26 -5.41,3.83 -1.95,1.57 -3.94,3.41 -6,5.5 -2.06,2.1 -3.97,4.3 -5.8,6.56 -0.78,0.89 -1.71,1.99 -2.84,3.19 -1.17,1.26 -2.3,2.36 -3.39,3.41 -1.09,1 -2.1,1.89 -2.95,2.62 -0.9,0.68 -1.44,1.05 -1.64,1.05 -1.83,0 -3.27,-0.37 -4.36,-1.05 -1.05,-0.73 -1.87,-1.68 -2.37,-2.77 -0.55,-1.16 -0.86,-2.36 -0.98,-3.67 -0.11,-1.37 -0.19,-2.57 -0.19,-3.73 0,-0.89 0.58,-2.67 1.71,-5.34 1.17,-2.68 2.77,-5.72 4.87,-9.07 2.1,-3.41 4.59,-6.92 7.51,-10.59 2.92,-3.73 6.15,-7.08 9.65,-10.17 3.51,-3.04 7.2,-5.56 11.17,-7.6 3.93,-2 8.02,-2.99 12.19,-2.99 2.22,0 4.67,0.73 7.43,2.25 2.73,1.47 5.3,3.51 7.67,6.03 2.41,2.57 4.44,5.56 6.07,9.02 1.64,3.4 2.45,7.07 2.45,10.95 0,5.56 -0.66,10.7 -1.94,15.36 -1.29,4.72 -2.96,9.18 -5.02,13.37 -2.07,4.2 -4.4,8.18 -7.09,12.01 -2.65,3.77 -5.33,7.55 -8.09,11.37 -2.03,2.73 -4.01,5.51 -5.88,8.18 -1.83,2.73 -3.47,5.4 -4.87,8.07 -1.44,2.68 -2.57,5.3 -3.42,7.92 -0.9,2.62 -1.33,5.24 -1.33,7.92 0,1.31 0.32,2.46 0.9,3.46 0.62,0.94 1.4,1.78 2.3,2.46 0.89,0.63 1.9,1.15 2.95,1.41 1.05,0.32 2.03,0.48 2.85,0.48 3.58,0 7.47,-1.05 11.71,-3.2 4.21,-2.15 8.37,-4.82 12.46,-7.92 4.12,-3.14 7.98,-6.45 11.52,-10.01 3.58,-3.51 6.54,-6.66 8.91,-9.44 6.15,-7.34 12.11,-14.73 17.83,-22.12 5.76,-7.34 10.94,-14 15.57,-19.97 4.63,-5.93 8.6,-10.75 11.83,-14.42 3.23,-3.67 5.41,-5.5 6.54,-5.5 1.99,0 3.42,0.52 4.4,1.57 0.93,1.1 1.4,3.15 1.4,6.24zm49.04 13.05c-1.05,-1.41 -2.22,-3.04 -3.46,-4.93 -1.29,-1.83 -2.37,-3.93 -3.39,-6.29 -0.89,-2.15 -1.63,-4.3 -2.22,-6.45 -0.54,-2.14 -0.97,-4.14 -1.24,-6.08 -0.27,-1.88 -0.47,-3.61 -0.59,-5.19 -0.11,-1.57 -0.19,-2.98 -0.27,-4.24 -1.44,0.31 -3.07,1.05 -4.86,2.15 -1.75,1.15 -3.55,2.51 -5.34,4.08 -1.79,1.58 -3.46,3.26 -5.02,4.99 -1.55,1.73 -2.88,3.35 -3.93,4.77 -2.22,3.09 -4.2,6.13 -5.95,9.12 -1.72,3.04 -3.35,6.13 -4.83,9.38 -1.48,3.2 -2.92,6.61 -4.28,10.12 -1.36,3.57 -2.8,7.44 -4.32,11.74 -0.62,1.68 -1.17,3.67 -1.6,6.03 -0.46,2.36 -0.85,4.82 -1.2,7.45 -0.35,2.62 -0.63,5.19 -0.82,7.81 -0.16,2.62 -0.27,4.93 -0.27,7.02 0,0.89 0.19,2.1 0.62,3.51 0.43,1.42 0.97,2.78 1.67,4.09 0.66,1.26 1.44,2.36 2.26,3.31 0.86,0.89 1.67,1.36 2.53,1.36 3.5,0 6.5,-0.16 9.07,-0.37 2.53,-0.26 4.94,-0.89 7.24,-1.78 2.26,-0.94 4.55,-2.31 6.81,-4.09 2.3,-1.78 4.9,-4.19 7.9,-7.29 2.88,-2.98 5.49,-6.45 7.86,-10.53 2.34,-4.04 4.36,-8.18 6.04,-12.48 1.67,-4.3 2.99,-8.49 3.93,-12.63 0.97,-4.09 1.44,-7.55 1.44,-10.44l-3.78 -4.14zm86.45 -9.38c0,4.72 -2.25,10.17 -6.73,16.3 -2.53,3.36 -5.29,6.34 -8.37,8.81 -3.11,2.51 -6.31,4.66 -9.65,6.39 -3.35,1.73 -6.7,3.04 -10.09,3.94 -3.38,0.84 -6.57,1.31 -9.53,1.31 -1.67,0 -3.46,-0.21 -5.37,-0.58 -1.87,-0.37 -3.78,-0.89 -5.65,-1.57 -1.83,-0.74 -3.62,-1.58 -5.33,-2.47 -1.71,-0.94 -3.27,-1.99 -4.63,-3.25 -0.74,11.38 -3.35,21.5 -7.82,30.36 -4.44,8.86 -10.86,17.4 -19.31,25.68 -6.07,5.98 -13.19,10.33 -21.29,13.16 -8.1,2.83 -16.47,4.2 -25.15,4.2 -2.25,0 -4.51,-0.63 -6.69,-1.89 -2.22,-1.31 -4.32,-2.99 -6.31,-5.09 -1.94,-2.09 -3.81,-4.51 -5.52,-7.18 -1.72,-2.72 -3.2,-5.55 -4.44,-8.49 -1.25,-2.88 -2.22,-5.82 -2.92,-8.76 -0.66,-2.88 -1.01,-5.55 -1.01,-7.91 0,-8.18 0.66,-15.83 1.94,-22.91 1.29,-7.13 3.12,-13.94 5.53,-20.45 2.38,-6.5 5.26,-12.89 8.6,-19.18 3.35,-6.29 7.05,-12.79 11.06,-19.45 2.37,-3.88 5.29,-7.66 8.72,-11.38 3.46,-3.67 7.12,-6.97 10.9,-9.8 3.81,-2.88 7.63,-5.19 11.52,-7.03 3.89,-1.78 7.39,-2.67 10.51,-2.67 3.03,0 6.07,0.26 9.14,0.79 3.12,0.52 6.04,1.78 8.8,3.82 2.76,2.05 5.29,5.14 7.59,9.23 2.26,4.09 4.13,9.7 5.57,16.88 0.62,2.99 1.09,5.61 1.4,7.92 0.27,2.3 0.78,4.03 1.48,5.13 1.05,1.73 2.29,3.52 3.73,5.3 1.44,1.78 3.08,3.41 4.91,4.87 1.83,1.42 3.85,2.57 6.07,3.52 2.18,0.89 4.59,1.36 7.16,1.36 2.69,0 5.33,-0.26 7.98,-0.73 2.69,-0.53 5.22,-1.26 7.67,-2.26 2.41,-0.94 4.67,-2.2 6.69,-3.67 2.07,-1.47 3.82,-3.14 5.26,-4.98 0.78,-1.05 1.44,-1.94 2.06,-2.72 0.62,-0.74 1.21,-1.42 1.83,-2 0.59,-0.57 1.29,-0.94 2.02,-1.2 0.78,-0.26 1.64,-0.42 2.65,-0.42 0.82,0 1.56,0.36 2.18,1.05 0.59,0.63 1.09,1.41 1.52,2.36 0.43,0.94 0.74,1.88 0.97,2.93 0.23,1 0.35,1.94 0.35,2.73z"/>
   <path class="fil0" d="M2224.04 159.88c0,0.89 -0.16,2.1 -0.51,3.57 -0.35,1.52 -0.78,3.09 -1.32,4.77 -0.51,1.73 -1.17,3.4 -1.87,5.13 -0.74,1.79 -1.44,3.41 -2.1,4.93 -1.25,2.57 -2.88,5.56 -4.91,8.91 -2.06,3.41 -4.36,6.92 -6.85,10.59 -2.53,3.72 -5.18,7.39 -7.98,11.07 -2.8,3.72 -5.6,7.12 -8.33,10.27 -2.22,2.46 -4.79,5.19 -7.74,8.18 -2.96,2.93 -6.15,5.71 -9.46,8.28 -3.35,2.57 -6.77,4.67 -10.24,6.4 -3.46,1.67 -6.77,2.51 -9.96,2.51 -2.96,0 -5.84,-0.78 -8.61,-2.36 -2.8,-1.62 -5.37,-4.61 -7.74,-9.01 -2.42,-4.41 -4.52,-10.54 -6.35,-18.4 -1.83,-7.92 -3.27,-18.14 -4.32,-30.72 -0.07,-1.26 -0.19,-3.15 -0.31,-5.77 -0.11,-2.62 -0.23,-5.24 -0.31,-7.86 -0.12,-2.57 -0.27,-4.88 -0.43,-6.82 -0.15,-1.94 -0.31,-2.93 -0.43,-2.93 -0.62,0 -1.63,1.25 -3.03,3.72 -1.4,2.41 -3.08,5.66 -5.02,9.75 -1.95,4.03 -4.05,8.7 -6.35,13.94 -2.26,5.3 -4.63,10.75 -7.04,16.36 -3.04,7.18 -5.92,13.63 -8.6,19.29 -2.73,5.66 -5.26,10.43 -7.67,14.26 -2.38,3.88 -4.71,6.81 -6.93,8.86 -2.26,2.04 -4.52,3.04 -6.81,3.04 -3.51,0 -6.35,-0.89 -8.53,-2.67 -2.22,-1.79 -3.97,-4.56 -5.25,-8.29 -1.29,-3.72 -2.22,-8.54 -2.76,-14.41 -0.51,-5.93 -0.86,-12.9 -1.02,-20.97 -0.23,-13.53 -0.54,-24.06 -0.97,-31.67 -0.43,-7.55 -1.01,-11.37 -1.75,-11.37 -0.94,0 -2.45,1.62 -4.56,4.77 -2.14,3.2 -4.67,7.55 -7.59,13.05 -2.91,5.56 -6.11,12.06 -9.57,19.5 -3.47,7.5 -7.05,15.52 -10.67,24.12 -0.93,2.25 -2.02,4.87 -3.3,7.86 -1.29,2.94 -2.65,5.98 -4.01,9.07 -1.37,3.04 -2.73,6.03 -4.05,8.86 -1.32,2.88 -2.53,5.35 -3.58,7.39 -1.37,2.68 -3.04,4.67 -5.02,6.08 -1.99,1.37 -4.05,2.05 -6.27,2.05 -3.11,0 -5.76,-0.89 -7.98,-2.68 -2.22,-1.78 -4.01,-4.24 -5.37,-7.28 -1.36,-3.1 -2.38,-6.71 -3,-10.91 -0.66,-4.19 -0.97,-8.65 -0.97,-13.36 0,-4.2 0.08,-7.97 0.19,-11.38 0.16,-3.36 0.39,-6.76 0.7,-10.22 0.32,-3.41 0.67,-7.03 1.09,-10.8 0.43,-3.78 0.9,-8.13 1.41,-13.06 0.46,-4.3 0.81,-8.86 1.05,-13.57 0.23,-4.77 0.46,-9.44 0.66,-14 0.23,-4.56 0.5,-8.81 0.81,-12.69 0.32,-3.88 0.75,-7.13 1.25,-9.64 0.39,-1.79 0.9,-3.62 1.48,-5.61 0.62,-1.99 1.48,-3.88 2.65,-5.56 1.13,-1.68 2.57,-3.09 4.32,-4.3 1.75,-1.15 3.93,-1.73 6.5,-1.73 2.37,0 4.24,0.58 5.68,1.73 1.48,1.21 2.57,2.78 3.31,4.77 0.78,1.99 1.28,4.3 1.56,6.92 0.27,2.62 0.39,5.35 0.39,8.23 0,2.41 -0.24,5.77 -0.75,9.96 -0.5,4.2 -1.08,8.86 -1.82,13.9 -0.7,5.08 -1.52,10.32 -2.46,15.83 -0.89,5.45 -1.75,10.74 -2.56,15.72 -0.78,5.04 -1.48,9.55 -2.11,13.64 -0.58,4.03 -1.01,7.18 -1.24,9.43 0.15,-0.42 0.58,-1.47 1.32,-3.09 0.7,-1.63 1.6,-3.62 2.61,-5.98 1.01,-2.36 2.1,-4.87 3.27,-7.55 1.13,-2.62 2.22,-5.14 3.23,-7.49 1.01,-2.36 1.91,-4.41 2.68,-6.14 0.74,-1.78 1.21,-2.83 1.37,-3.25 1.36,-3.09 2.96,-6.55 4.78,-10.38 1.83,-3.83 3.74,-7.7 5.73,-11.64 1.94,-3.98 3.93,-7.7 5.83,-11.32 1.95,-3.56 3.74,-6.6 5.34,-9.07 3.42,-5.19 7.04,-9.12 10.86,-11.79 3.85,-2.68 7.94,-3.99 12.26,-3.99 4.67,0 8.52,2.15 11.64,6.45 3.11,4.3 5.21,9.91 6.26,16.88 0.39,2.57 0.7,5.77 0.94,9.7 0.23,3.88 0.39,7.91 0.5,12.16 0.12,4.3 0.2,8.55 0.28,12.85 0.07,4.29 0.15,8.12 0.19,11.53 0.04,3.35 0.08,6.13 0.15,8.28 0.08,2.15 0.24,3.25 0.47,3.25 0.66,0 1.68,-1.31 2.96,-3.88 1.29,-2.57 2.72,-5.76 4.32,-9.64 1.6,-3.94 3.27,-8.13 5.02,-12.64 1.75,-4.45 3.43,-8.65 5.02,-12.42 2.69,-6.03 5.49,-11.85 8.45,-17.41 2.96,-5.61 5.92,-10.53 8.84,-14.78 2.92,-4.25 5.72,-7.6 8.36,-10.12 2.69,-2.51 5.02,-3.77 7.09,-3.77 1.44,0 2.92,0.21 4.44,0.63 1.51,0.42 2.99,0.99 4.39,1.78 1.41,0.73 2.69,1.68 3.82,2.72 1.13,1.11 2.02,2.31 2.65,3.62 1.28,2.78 2.21,5.82 2.84,9.07 0.58,3.3 1.05,6.92 1.28,10.91 0.27,3.98 0.47,8.38 0.58,13.21 0.12,4.82 0.39,10.11 0.86,15.98 0.86,10.65 2.06,18.98 3.66,25.01 1.6,6.08 3.85,9.07 6.85,9.07 1.29,0 2.96,-0.63 5.06,-1.89 2.1,-1.31 4.36,-2.93 6.85,-4.92 2.45,-2 5.02,-4.25 7.63,-6.71 2.61,-2.47 5.06,-4.88 7.36,-7.34 2.53,-2.68 4.9,-5.4 7.2,-8.23 2.26,-2.84 4.51,-5.72 6.77,-8.71 2.26,-2.93 4.51,-6.03 6.85,-9.28 2.3,-3.19 4.75,-6.6 7.36,-10.22 1.59,-2.15 3.42,-3.2 5.45,-3.2 2.45,0 3.66,2.36 3.66,7.08zm71.46 -90.64c0,4.09 -0.66,8.65 -2.03,13.58 -1.36,4.98 -3.26,10.06 -5.64,15.31 -2.41,5.24 -5.21,10.38 -8.41,15.51 -3.19,5.09 -6.65,9.86 -10.35,14.26 2.8,1.37 5.25,3.31 7.36,5.87 2.06,2.52 3.85,5.46 5.29,8.65 1.44,3.25 2.65,6.66 3.58,10.28 0.97,3.67 1.71,7.29 2.22,10.9 0.55,3.67 0.9,7.13 1.09,10.38 0.19,3.31 0.31,6.19 0.31,8.76 0,11.58 -1.48,22.38 -4.4,32.39 -2.92,10.07 -6.73,18.77 -11.4,26.22 -4.67,7.39 -9.97,13.26 -15.84,17.51 -5.92,4.24 -11.84,6.34 -17.75,6.34 -1.29,0 -3.08,-0.1 -5.37,-0.37 -2.26,-0.26 -4.79,-1.05 -7.52,-2.36 -2.72,-1.36 -5.52,-3.4 -8.37,-6.23 -2.87,-2.84 -5.44,-6.71 -7.7,-11.75 -2.3,-5.03 -4.17,-11.37 -5.65,-19.13 -1.47,-7.71 -2.21,-17.09 -2.21,-28.15 0,-14.37 0.85,-28.31 2.6,-41.94 1.75,-13.63 4.21,-26.48 7.32,-38.59 3.12,-12.05 6.81,-23.12 11.09,-33.13 4.33,-10.06 9,-18.71 14.09,-26 5.1,-7.23 10.51,-12.9 16.2,-16.93 5.72,-4.04 11.52,-6.08 17.44,-6.08 3.5,0 6.73,0.73 9.65,2.15 2.92,1.41 5.45,3.61 7.59,6.55 2.1,2.88 3.77,6.55 5.02,10.9 1.2,4.35 1.79,9.39 1.79,15.1zm-28.96 115.96c0,-3.98 -0.35,-8.23 -1.13,-12.69 -0.74,-4.45 -1.71,-8.49 -2.92,-12.21 -1.16,-3.67 -2.45,-6.71 -3.85,-9.12 -1.4,-2.41 -2.76,-3.62 -4.05,-3.62 0,0 -1.01,0.95 -2.96,2.78 -1.98,1.83 -4.43,4.14 -7.35,6.81 -2.96,2.73 -6.04,5.61 -9.31,8.6 -3.27,3.04 -6.19,5.77 -8.79,8.23 -0.08,1.05 -0.2,2.47 -0.35,4.25 -0.12,1.78 -0.28,3.72 -0.43,5.77 -0.16,2.04 -0.27,4.03 -0.35,6.03 -0.08,1.99 -0.12,3.77 -0.12,5.29 0,9.33 0.51,16.93 1.56,22.8 1.01,5.93 2.29,10.49 3.81,13.79 1.52,3.25 3.19,5.5 5.06,6.76 1.87,1.21 3.58,1.84 5.18,1.84 4.05,0 7.67,-1.78 10.9,-5.4 3.23,-3.57 5.95,-8.07 8.21,-13.53 2.26,-5.4 3.97,-11.37 5.14,-17.87 1.17,-6.5 1.75,-12.69 1.75,-18.51zm7.55 -114.12c0,-3.26 -0.43,-5.93 -1.28,-7.92 -0.82,-1.99 -2.07,-2.99 -3.74,-2.99 -3.43,0 -6.93,1.99 -10.51,5.93 -3.58,3.93 -7.04,9.54 -10.47,16.82 -3.42,7.29 -6.69,16.04 -9.81,26.32 -3.11,10.33 -5.91,21.81 -8.33,34.49 4.09,-4.4 7.79,-8.54 11.02,-12.37 3.23,-3.82 6.19,-7.6 8.95,-11.37 2.72,-3.73 5.33,-7.45 7.78,-11.12 2.5,-3.67 5.03,-7.6 7.59,-11.69 0.86,-1.2 1.76,-2.93 2.73,-5.13 1.01,-2.21 1.95,-4.57 2.88,-7.13 0.89,-2.57 1.67,-5.09 2.26,-7.55 0.62,-2.41 0.93,-4.56 0.93,-6.29zm108.68 98.76c-1.06,-1.41 -2.22,-3.04 -3.47,-4.93 -1.28,-1.83 -2.37,-3.93 -3.38,-6.29 -0.9,-2.15 -1.64,-4.3 -2.22,-6.45 -0.55,-2.14 -0.98,-4.14 -1.25,-6.08 -0.27,-1.88 -0.47,-3.61 -0.58,-5.19 -0.12,-1.57 -0.2,-2.98 -0.28,-4.24 -1.44,0.31 -3.07,1.05 -4.86,2.15 -1.75,1.15 -3.54,2.51 -5.33,4.08 -1.79,1.58 -3.47,3.26 -5.02,4.99 -1.56,1.73 -2.88,3.35 -3.94,4.77 -2.21,3.09 -4.2,6.13 -5.95,9.12 -1.71,3.04 -3.35,6.13 -4.83,9.38 -1.48,3.2 -2.92,6.61 -4.28,10.12 -1.36,3.57 -2.8,7.44 -4.32,11.74 -0.62,1.68 -1.17,3.67 -1.59,6.03 -0.47,2.36 -0.86,4.82 -1.21,7.45 -0.35,2.62 -0.62,5.19 -0.82,7.81 -0.16,2.62 -0.27,4.93 -0.27,7.02 0,0.89 0.19,2.1 0.62,3.51 0.43,1.42 0.97,2.78 1.68,4.09 0.66,1.26 1.43,2.36 2.25,3.31 0.86,0.89 1.68,1.36 2.53,1.36 3.5,0 6.5,-0.16 9.07,-0.37 2.53,-0.26 4.95,-0.89 7.24,-1.78 2.26,-0.94 4.55,-2.31 6.81,-4.09 2.3,-1.78 4.91,-4.19 7.91,-7.29 2.87,-2.98 5.48,-6.45 7.86,-10.53 2.33,-4.04 4.36,-8.18 6.03,-12.48 1.67,-4.3 3,-8.49 3.93,-12.63 0.97,-4.09 1.44,-7.55 1.44,-10.44l-3.77 -4.14zm86.44 -9.38c0,4.72 -2.25,10.17 -6.73,16.3 -2.53,3.36 -5.29,6.34 -8.37,8.81 -3.11,2.51 -6.3,4.66 -9.65,6.39 -3.35,1.73 -6.7,3.04 -10.08,3.94 -3.39,0.84 -6.58,1.31 -9.54,1.31 -1.67,0 -3.46,-0.21 -5.37,-0.58 -1.87,-0.37 -3.78,-0.89 -5.64,-1.57 -1.83,-0.74 -3.62,-1.58 -5.34,-2.47 -1.71,-0.94 -3.27,-1.99 -4.63,-3.25 -0.74,11.38 -3.35,21.5 -7.82,30.36 -4.44,8.86 -10.86,17.4 -19.31,25.68 -6.07,5.98 -13.19,10.33 -21.29,13.16 -8.09,2.83 -16.46,4.2 -25.14,4.2 -2.26,0 -4.52,-0.63 -6.7,-1.89 -2.22,-1.31 -4.32,-2.99 -6.3,-5.09 -1.95,-2.09 -3.82,-4.51 -5.53,-7.18 -1.71,-2.72 -3.19,-5.55 -4.44,-8.49 -1.24,-2.88 -2.22,-5.82 -2.92,-8.76 -0.66,-2.88 -1.01,-5.55 -1.01,-7.91 0,-8.18 0.66,-15.83 1.95,-22.91 1.28,-7.13 3.11,-13.94 5.52,-20.45 2.38,-6.5 5.26,-12.89 8.61,-19.18 3.34,-6.29 7.04,-12.79 11.05,-19.45 2.37,-3.88 5.29,-7.66 8.72,-11.38 3.46,-3.67 7.12,-6.97 10.9,-9.8 3.81,-2.88 7.63,-5.19 11.52,-7.03 3.89,-1.78 7.39,-2.67 10.51,-2.67 3.03,0 6.07,0.26 9.14,0.79 3.12,0.52 6.04,1.78 8.8,3.82 2.77,2.05 5.3,5.14 7.59,9.23 2.26,4.09 4.13,9.7 5.57,16.88 0.62,2.99 1.09,5.61 1.4,7.92 0.27,2.3 0.78,4.03 1.48,5.13 1.05,1.73 2.3,3.52 3.74,5.3 1.44,1.78 3.07,3.41 4.9,4.87 1.83,1.42 3.85,2.57 6.07,3.52 2.18,0.89 4.59,1.36 7.16,1.36 2.69,0 5.34,-0.26 7.98,-0.73 2.69,-0.53 5.22,-1.26 7.67,-2.26 2.41,-0.94 4.67,-2.2 6.7,-3.67 2.06,-1.47 3.81,-3.14 5.25,-4.98 0.78,-1.05 1.44,-1.94 2.06,-2.72 0.63,-0.74 1.21,-1.42 1.83,-2 0.59,-0.57 1.29,-0.94 2.03,-1.2 0.78,-0.26 1.63,-0.42 2.64,-0.42 0.82,0 1.56,0.36 2.18,1.05 0.59,0.63 1.09,1.41 1.52,2.36 0.43,0.94 0.74,1.88 0.97,2.93 0.24,1 0.35,1.94 0.35,2.73zm161.58 -9.18c0,0.68 -0.16,1.73 -0.47,3.15 -0.27,1.36 -0.9,3.04 -1.75,5.03 -0.86,1.99 -2.14,4.25 -3.78,6.76 -1.63,2.52 -3.77,5.25 -6.42,8.24 -2.53,2.77 -5.76,5.81 -9.77,9.22 -3.97,3.36 -8.45,6.87 -13.31,10.49 -4.91,3.67 -10.12,7.39 -15.57,11.21 -5.49,3.88 -10.94,7.55 -16.31,11.17 -5.41,3.57 -10.67,6.97 -15.76,10.28 -5.06,3.25 -9.7,6.18 -13.78,8.75 -2.69,1.63 -5.3,3.62 -7.94,5.92 -2.61,2.31 -5.18,4.51 -7.63,6.61 -2.49,2.1 -4.87,3.88 -7.2,5.35 -2.3,1.52 -4.48,2.25 -6.54,2.25 -2.22,0 -4.32,-0.37 -6.35,-1.1 -1.98,-0.68 -3.77,-1.78 -5.33,-3.3 -1.56,-1.47 -2.8,-3.41 -3.74,-5.77 -0.89,-2.31 -1.36,-5.19 -1.36,-8.6 0,-2.72 0.74,-5.13 2.18,-7.13 1.44,-1.99 3.19,-3.72 5.3,-5.19 2.1,-1.52 4.28,-2.77 6.61,-3.88 2.34,-1.04 4.32,-1.99 6,-2.83 2.29,-1.1 4.43,-2.04 6.42,-2.83 2.02,-0.78 3.7,-1.62 4.98,-2.51 2.06,-1.58 3.97,-3.52 5.8,-5.93 1.83,-2.41 3.58,-5.08 5.22,-8.02 1.63,-2.88 3.15,-5.97 4.59,-9.17 1.44,-3.25 2.8,-6.35 4.13,-9.33 0.81,-1.84 1.55,-3.93 2.14,-6.29 0.62,-2.36 1.16,-4.72 1.59,-7.08 0.47,-2.31 0.82,-4.56 1.05,-6.66 0.24,-2.1 0.35,-3.93 0.35,-5.45 0,-5.45 -0.7,-9.75 -2.06,-13 -1.36,-3.2 -3.07,-4.82 -5.14,-4.82 -1.67,0 -3.66,0.83 -5.91,2.56 -2.3,1.68 -4.64,3.73 -6.97,6.14 -2.38,2.41 -4.59,4.92 -6.73,7.6 -2.15,2.62 -3.86,4.87 -5.14,6.76 -3.04,4.4 -6.23,9.33 -9.62,14.78 -3.38,5.51 -6.62,11.17 -9.69,17.09 -3.08,5.88 -5.92,11.85 -8.44,17.93 -2.57,6.14 -4.56,12.06 -6,17.93 -0.9,3.46 -1.6,7.45 -2.06,11.95 -0.43,4.51 -0.82,9.23 -1.09,14.16 -0.24,4.88 -0.47,9.91 -0.63,14.94 -0.15,5.08 -0.31,9.96 -0.54,14.68 -0.39,7.7 -0.58,15.36 -0.62,22.96 -0.04,7.65 -0.55,14.63 -1.44,20.97 -0.32,2.04 -0.82,3.98 -1.6,5.82 -0.78,1.83 -1.71,3.51 -2.92,4.93 -1.17,1.41 -2.57,2.57 -4.16,3.46 -1.6,0.89 -3.39,1.31 -5.34,1.31 -1.24,0 -2.6,-0.37 -4.16,-1.16 -1.56,-0.78 -3.04,-1.83 -4.4,-3.25 -1.36,-1.36 -2.53,-2.93 -3.46,-4.71 -0.98,-1.84 -1.44,-3.73 -1.44,-5.77 0,-2.15 0.07,-4.77 0.23,-7.76 0.16,-3.04 0.35,-6.24 0.62,-9.7 0.28,-3.41 0.55,-6.92 0.86,-10.43 0.31,-3.51 0.58,-6.87 0.89,-9.96 0.32,-3.15 0.59,-5.93 0.82,-8.39 0.24,-2.46 0.43,-4.3 0.55,-5.56 1.01,-9.69 1.9,-20.7 2.76,-32.92 0.82,-12.21 1.48,-24.79 1.95,-37.69 0.11,-3.3 0.27,-7.39 0.39,-12.32 0.11,-4.88 0.23,-9.86 0.35,-14.78 0.11,-4.98 0.19,-9.55 0.31,-13.69 0.11,-4.14 0.23,-7.13 0.31,-8.96 0.66,-10.8 2.22,-18.82 4.67,-24.12 2.41,-5.34 5.96,-8.02 10.59,-8.02 1.83,0 3.58,0.53 5.25,1.63 1.67,1.05 3.15,2.52 4.4,4.3 1.25,1.78 2.26,3.77 3,5.92 0.78,2.15 1.16,4.3 1.16,6.45 0,1.94 -0.15,4.46 -0.46,7.5 -0.31,3.09 -0.66,6.34 -1.09,9.69 -0.43,3.36 -0.86,6.71 -1.36,9.96 -0.51,3.31 -0.94,6.09 -1.33,8.34 1.6,-3.62 3.35,-7.39 5.22,-11.38 1.87,-3.98 3.73,-7.91 5.64,-11.74 1.91,-3.88 3.78,-7.44 5.69,-10.74 1.9,-3.36 3.73,-6.14 5.48,-8.39 3.19,-4.2 6.43,-8.13 9.7,-11.75 3.26,-3.61 6.61,-6.81 10.04,-9.43 3.42,-2.67 6.96,-4.77 10.7,-6.29 3.74,-1.58 7.63,-2.31 11.76,-2.31 3.19,0 6.34,1.05 9.49,3.15 3.2,2.09 6,5.08 8.53,9.07 2.49,3.93 4.55,8.7 6.15,14.25 1.59,5.56 2.37,11.9 2.37,18.98 0,3.46 -0.39,7.24 -1.17,11.27 -0.81,4.04 -1.9,8.08 -3.26,12.06 -1.37,3.98 -3,7.86 -4.91,11.53 -1.91,3.67 -3.97,6.98 -6.27,9.81 4.79,-3.25 9.85,-6.87 15.18,-10.75 5.3,-3.88 10.67,-7.92 16,-12.11 5.37,-4.19 10.67,-8.44 15.88,-12.69 5.18,-4.24 10.01,-8.28 14.4,-12.05 2.22,-1.94 4.13,-3.57 5.76,-4.83 1.64,-1.31 3.35,-1.94 5.06,-1.94 1.33,0 2.34,0.48 3.04,1.47 0.74,1 1.09,2.31 1.09,4.09 0,0.79 -0.04,1.63 -0.12,2.46 -0.07,0.79 -0.11,1.53 -0.11,2.15zm166.86 15.94c0,0.63 -0.66,2.2 -1.91,4.77 -1.24,2.57 -2.99,5.77 -5.17,9.59 -2.22,3.83 -4.79,8.13 -7.71,12.74 -2.92,4.67 -6.03,9.44 -9.3,14.32 -3.27,4.87 -6.66,9.64 -10.12,14.36 -3.51,4.72 -6.93,8.96 -10.28,12.74 -5.1,5.82 -10.2,11.37 -15.33,16.67 -5.14,5.24 -10.4,9.91 -15.81,13.89 -5.41,3.99 -11.01,7.18 -16.81,9.54 -5.8,2.31 -11.99,3.51 -18.53,3.51 -4.71,0 -8.91,-0.99 -12.53,-2.98 -3.66,-2 -6.74,-4.77 -9.19,-8.29 -2.49,-3.56 -4.36,-7.7 -5.64,-12.47 -1.29,-4.77 -1.95,-9.96 -1.95,-15.57 0,-3.67 0.2,-7.87 0.62,-12.43 0.43,-4.61 1.06,-9.43 1.87,-14.36 0.86,-4.98 1.91,-10.02 3.15,-15.15 1.25,-5.09 2.73,-10.02 4.4,-14.73 -1.2,1.52 -2.72,2.83 -4.43,3.93 -1.75,1.05 -3.58,1.94 -5.49,2.57 -1.91,0.68 -3.82,1.2 -5.76,1.57 -1.95,0.37 -3.74,0.52 -5.41,0.52 -4.32,0 -8.53,-1.04 -12.61,-3.14 -4.05,-2.1 -7.63,-5.3 -10.71,-9.6 -3.07,-4.29 -5.56,-9.69 -7.43,-16.19 -1.87,-6.5 -2.8,-14.21 -2.8,-23.12 0,-7.81 0.62,-14.21 1.79,-19.29 1.16,-5.09 2.68,-9.13 4.51,-12.11 1.79,-3.04 3.78,-5.14 5.84,-6.29 2.1,-1.21 4.09,-1.79 5.88,-1.79 1.9,0 3.58,0.48 4.98,1.37 1.4,0.94 2.57,2.14 3.46,3.61 0.94,1.47 1.6,3.25 1.99,5.25 0.43,1.99 0.66,4.03 0.66,6.18 0,1.78 -0.16,3.46 -0.43,5.09 -0.27,1.62 -0.54,3.35 -0.89,5.13 -0.35,1.79 -0.66,3.67 -0.98,5.72 -0.31,1.99 -0.46,4.19 -0.46,6.66 0,4.29 0.42,7.96 1.24,10.95 0.86,3.04 1.95,5.51 3.31,7.5 1.4,1.94 2.96,3.35 4.71,4.3 1.71,0.89 3.46,1.36 5.22,1.36 2.76,0 5.56,-0.52 8.44,-1.62 2.88,-1.05 6.23,-3.2 10.04,-6.35 1.44,-1.26 2.81,-2.72 4.05,-4.4 1.25,-1.68 2.42,-3.41 3.47,-5.19 1.09,-1.84 2.06,-3.57 2.95,-5.24 0.94,-1.68 1.76,-3.15 2.53,-4.41 0.98,-1.62 2.11,-3.3 3.31,-5.03 1.21,-1.73 2.53,-3.35 3.94,-4.88 1.4,-1.46 2.91,-2.67 4.51,-3.56 1.6,-0.94 3.27,-1.42 5.02,-1.42 2.96,0 5.57,1.05 7.79,3.15 2.25,2.1 3.38,4.87 3.38,8.23 0,3.46 -0.54,6.55 -1.67,9.28 -1.09,2.73 -2.49,5.45 -4.21,8.18 -1.71,2.67 -3.58,5.61 -5.64,8.8 -2.06,3.2 -4.09,7.03 -6.03,11.54 -1.91,4.3 -3.66,9.12 -5.26,14.52 -1.59,5.35 -2.96,10.9 -4.12,16.62 -1.13,5.76 -2.03,11.43 -2.69,16.98 -0.62,5.61 -0.93,10.8 -0.93,15.62 0,5.19 0.82,9.07 2.49,11.59 1.67,2.52 4.4,3.72 8.21,3.72 3.82,0 8.02,-1.26 12.73,-3.82 4.67,-2.57 9.61,-6.03 14.79,-10.49 5.22,-4.45 10.59,-9.64 16.08,-15.52 5.52,-5.92 10.97,-12.16 16.3,-18.82 5.38,-6.65 10.59,-13.52 15.65,-20.6 5.06,-7.08 9.73,-13.94 14.09,-20.71 1.05,-1.78 2.57,-3.4 4.56,-4.92 1.98,-1.52 4.08,-2.31 6.38,-2.31 1.05,0 2.02,0.68 2.92,2.1 0.86,1.36 1.28,3.25 1.28,5.55 0,1.47 -0.04,2.78 -0.15,4.04 -0.12,1.21 -0.16,2.25 -0.16,3.04zm10.36 -22.7c-0.16,-1.78 -0.47,-3.35 -0.9,-4.77 -0.47,-1.42 -1.44,-2.15 -2.96,-2.15 -3.07,0 -5.88,1.68 -8.44,5.09 -2.61,3.35 -5.03,7.91 -7.24,13.73 -2.26,5.77 -4.29,12.48 -6.11,20.18 -1.83,7.66 -3.51,15.94 -5.03,24.75 0.63,-0.63 1.33,-1.47 2.1,-2.47 0.82,-1.04 1.6,-2.09 2.42,-3.14 0.78,-1.1 1.56,-2.1 2.26,-3.09 0.74,-0.95 1.32,-1.79 1.79,-2.36 4.55,-6.45 8.29,-12.06 11.17,-16.83 2.88,-4.77 5.14,-8.91 6.77,-12.43 1.64,-3.56 2.76,-6.6 3.31,-9.22 0.58,-2.62 0.86,-5.03 0.86,-7.29zm84.5 15.78c0,0.94 -0.27,2.67 -0.78,5.24 -0.55,2.57 -1.52,5.09 -3,7.55 -8.64,14.84 -17.12,28.73 -25.41,41.68 -8.29,12.95 -16.43,24.22 -24.41,33.81 -7.98,9.54 -15.8,17.09 -23.43,22.65 -7.63,5.5 -15.1,8.28 -22.42,8.28 -6.81,0 -12.73,-1.47 -17.67,-4.45 -4.95,-2.99 -9.03,-7.13 -12.26,-12.53 -3.23,-5.35 -5.61,-11.85 -7.13,-19.4 -1.51,-7.6 -2.25,-15.99 -2.25,-25.22 0,-6.97 0.46,-14.31 1.4,-22.12 0.97,-7.76 2.41,-15.57 4.36,-23.33 1.9,-7.81 4.39,-15.41 7.39,-22.91 3,-7.44 6.54,-14.31 10.67,-20.55 1.75,-2.67 3.81,-5.29 6.15,-7.86 2.37,-2.52 4.86,-4.82 7.55,-6.81 2.64,-2 5.41,-3.62 8.29,-4.93 2.92,-1.26 5.72,-1.89 8.45,-1.89 3.19,0 6.15,0.84 8.83,2.57 2.73,1.78 5.02,4.04 6.89,6.87 1.91,2.83 3.39,6.02 4.48,9.64 1.05,3.67 1.59,7.39 1.59,11.33 0,3.98 -0.5,8.44 -1.55,13.36 -1.02,4.88 -2.57,10.02 -4.6,15.36 -2.06,5.3 -4.59,10.7 -7.59,16.1 -2.99,5.45 -6.46,10.64 -10.31,15.67 -1.44,1.84 -3.23,3.99 -5.33,6.45 -2.07,2.46 -4.33,5.09 -6.74,7.81 -2.37,2.78 -4.86,5.56 -7.43,8.39 -2.61,2.83 -5.06,5.4 -7.44,7.76 0.08,2.25 0.47,4.56 1.13,6.97 0.7,2.41 1.71,4.61 3.12,6.61 1.36,1.99 3.11,3.67 5.21,4.92 2.14,1.26 4.67,1.94 7.67,1.94 5.37,0 11.25,-2.57 17.55,-7.6 6.31,-5.08 12.93,-11.74 19.86,-20.08 6.88,-8.28 14.01,-17.72 21.36,-28.3 7.32,-10.59 14.72,-21.45 22.19,-32.51 1.05,-1.62 2.41,-3.3 4.09,-5.03 1.67,-1.78 3.66,-2.62 5.95,-2.62 0.43,0 0.97,0.16 1.64,0.52 0.66,0.37 1.24,0.89 1.83,1.52 0.58,0.68 1.05,1.47 1.48,2.31 0.42,0.89 0.62,1.83 0.62,2.83z"/>
   <path class="fil0" d="M3013.6 154.8c0,1.2 -0.12,2.57 -0.35,4.09 -0.23,1.46 -0.66,3.14 -1.36,4.98 -0.66,1.83 -1.6,3.93 -2.81,6.29 -1.16,2.35 -2.68,5.03 -4.59,7.96 -2.06,3.31 -4.4,6.77 -6.97,10.49 -2.57,3.67 -5.21,7.34 -7.94,10.96 -2.68,3.61 -5.37,7.13 -8.01,10.53 -2.69,3.36 -5.14,6.4 -7.44,9.02 -4.86,5.77 -9.65,11.11 -14.36,16.09 -4.71,4.93 -9.34,9.39 -13.9,13.27 -6.85,5.82 -14.17,10.32 -22.03,13.52 -7.82,3.15 -16.11,4.77 -24.83,4.77 -5.72,0 -10.78,-1.41 -15.18,-4.24 -4.4,-2.83 -8.14,-6.61 -11.17,-11.38 -3.04,-4.72 -5.33,-10.33 -6.89,-16.72 -1.56,-6.4 -2.34,-13.11 -2.34,-20.19 0,-13.42 2.07,-26.89 6.27,-40.47 4.16,-13.57 9.93,-26.89 17.2,-40 1.83,-3.3 3.97,-6.6 6.47,-10.01 2.45,-3.35 5.06,-6.39 7.78,-9.12 2.76,-2.73 5.57,-4.93 8.45,-6.71 2.88,-1.73 5.72,-2.57 8.44,-2.57 1.83,0 3.74,0.42 5.76,1.26 2.03,0.89 4.01,2.2 5.92,3.93 1.95,1.73 3.77,3.93 5.53,6.61 1.75,2.67 3.23,5.81 4.47,9.38 2.42,7.18 3.62,12.37 3.62,15.67 0,1.73 -0.11,3.83 -0.39,6.35 -0.27,2.51 -0.74,4.93 -1.48,7.18 -0.74,2.25 -1.67,4.14 -2.92,5.71 -1.2,1.63 -2.76,2.42 -4.67,2.42 -2.8,0 -5.09,-1.11 -6.89,-3.31 -1.79,-2.2 -3.23,-4.77 -4.32,-7.7 -1.12,-2.89 -2.02,-5.82 -2.68,-8.65 -0.7,-2.89 -1.32,-4.98 -1.95,-6.29 -2.22,0.31 -4.47,1.67 -6.77,4.19 -2.34,2.52 -4.59,5.77 -6.81,9.7 -2.18,3.93 -4.28,8.44 -6.19,13.58 -1.95,5.13 -3.66,10.53 -5.14,16.3 -1.48,5.71 -2.65,11.59 -3.46,17.56 -0.86,5.98 -1.29,11.8 -1.29,17.46 0,5.19 1.4,9.75 4.24,13.63 3.2,4.3 6.16,6.45 8.88,6.45 8.68,0 17.01,-2.15 25.03,-6.45 8.02,-4.3 15.76,-10.02 23.2,-17.2 5.25,-4.98 11.17,-11.16 17.71,-18.4 6.54,-7.28 13.07,-15.2 19.69,-23.8 2.22,-2.88 4.4,-5.76 6.58,-8.7 2.14,-2.94 4.2,-5.56 6.15,-7.92 1.95,-2.36 3.7,-4.24 5.25,-5.76 1.56,-1.47 2.85,-2.2 3.82,-2.2 1.44,0 2.57,0.89 3.42,2.67 0.82,1.78 1.25,3.72 1.25,5.77zm232.06 5.08c0,0.89 -0.16,2.1 -0.51,3.57 -0.34,1.52 -0.77,3.09 -1.32,4.77 -0.5,1.73 -1.17,3.4 -1.87,5.13 -0.74,1.79 -1.44,3.41 -2.1,4.93 -1.24,2.57 -2.88,5.56 -4.9,8.91 -2.06,3.41 -4.36,6.92 -6.85,10.59 -2.53,3.72 -5.18,7.39 -7.98,11.07 -2.8,3.72 -5.61,7.12 -8.33,10.27 -2.22,2.46 -4.79,5.19 -7.75,8.18 -2.96,2.93 -6.15,5.71 -9.46,8.28 -3.34,2.57 -6.77,4.67 -10.23,6.4 -3.47,1.67 -6.78,2.51 -9.97,2.51 -2.96,0 -5.84,-0.78 -8.6,-2.36 -2.8,-1.62 -5.37,-4.61 -7.75,-9.01 -2.41,-4.41 -4.51,-10.54 -6.34,-18.4 -1.83,-7.92 -3.27,-18.14 -4.32,-30.72 -0.08,-1.26 -0.2,-3.15 -0.31,-5.77 -0.12,-2.62 -0.24,-5.24 -0.31,-7.86 -0.12,-2.57 -0.28,-4.88 -0.43,-6.82 -0.16,-1.94 -0.31,-2.93 -0.43,-2.93 -0.62,0 -1.64,1.25 -3.04,3.72 -1.4,2.41 -3.07,5.66 -5.02,9.75 -1.94,4.03 -4.05,8.7 -6.34,13.94 -2.26,5.3 -4.63,10.75 -7.05,16.36 -3.03,7.18 -5.91,13.63 -8.6,19.29 -2.72,5.66 -5.25,10.43 -7.67,14.26 -2.37,3.88 -4.71,6.81 -6.92,8.86 -2.26,2.04 -4.52,3.04 -6.82,3.04 -3.5,0 -6.34,-0.89 -8.52,-2.67 -2.22,-1.79 -3.97,-4.56 -5.26,-8.29 -1.28,-3.72 -2.21,-8.54 -2.76,-14.41 -0.51,-5.93 -0.86,-12.9 -1.01,-20.97 -0.23,-13.53 -0.55,-24.06 -0.98,-31.67 -0.42,-7.55 -1.01,-11.37 -1.75,-11.37 -0.93,0 -2.45,1.62 -4.55,4.77 -2.14,3.2 -4.67,7.55 -7.59,13.05 -2.92,5.56 -6.11,12.06 -9.57,19.5 -3.47,7.5 -7.05,15.52 -10.67,24.12 -0.93,2.25 -2.02,4.87 -3.31,7.86 -1.28,2.94 -2.65,5.98 -4.01,9.07 -1.36,3.04 -2.72,6.03 -4.05,8.86 -1.32,2.88 -2.53,5.35 -3.58,7.39 -1.36,2.68 -3.03,4.67 -5.02,6.08 -1.98,1.37 -4.05,2.05 -6.26,2.05 -3.12,0 -5.77,-0.89 -7.98,-2.68 -2.22,-1.78 -4.01,-4.24 -5.38,-7.28 -1.36,-3.1 -2.37,-6.71 -2.99,-10.91 -0.67,-4.19 -0.98,-8.65 -0.98,-13.36 0,-4.2 0.08,-7.97 0.2,-11.38 0.15,-3.36 0.39,-6.76 0.7,-10.22 0.31,-3.41 0.66,-7.03 1.09,-10.8 0.43,-3.78 0.89,-8.13 1.4,-13.06 0.47,-4.3 0.82,-8.86 1.05,-13.57 0.24,-4.77 0.47,-9.44 0.66,-14 0.24,-4.56 0.51,-8.81 0.82,-12.69 0.31,-3.88 0.74,-7.13 1.25,-9.64 0.38,-1.79 0.89,-3.62 1.48,-5.61 0.62,-1.99 1.47,-3.88 2.64,-5.56 1.13,-1.68 2.57,-3.09 4.32,-4.3 1.75,-1.15 3.93,-1.73 6.5,-1.73 2.38,0 4.25,0.58 5.69,1.73 1.47,1.21 2.57,2.78 3.3,4.77 0.78,1.99 1.29,4.3 1.56,6.92 0.27,2.62 0.39,5.35 0.39,8.23 0,2.41 -0.23,5.77 -0.74,9.96 -0.5,4.2 -1.09,8.86 -1.83,13.9 -0.7,5.08 -1.52,10.32 -2.45,15.83 -0.9,5.45 -1.75,10.74 -2.57,15.72 -0.78,5.04 -1.48,9.55 -2.1,13.64 -0.59,4.03 -1.01,7.18 -1.25,9.43 0.16,-0.42 0.59,-1.47 1.33,-3.09 0.7,-1.63 1.59,-3.62 2.6,-5.98 1.02,-2.36 2.11,-4.87 3.27,-7.55 1.13,-2.62 2.22,-5.14 3.23,-7.49 1.02,-2.36 1.91,-4.41 2.69,-6.14 0.74,-1.78 1.21,-2.83 1.36,-3.25 1.37,-3.09 2.96,-6.55 4.79,-10.38 1.83,-3.83 3.74,-7.7 5.72,-11.64 1.95,-3.98 3.93,-7.7 5.84,-11.32 1.95,-3.56 3.74,-6.6 5.33,-9.07 3.43,-5.19 7.05,-9.12 10.86,-11.79 3.86,-2.68 7.94,-3.99 12.26,-3.99 4.67,0 8.53,2.15 11.64,6.45 3.12,4.3 5.22,9.91 6.27,16.88 0.39,2.57 0.7,5.77 0.93,9.7 0.24,3.88 0.39,7.91 0.51,12.16 0.12,4.3 0.19,8.55 0.27,12.85 0.08,4.29 0.16,8.12 0.2,11.53 0.03,3.35 0.07,6.13 0.15,8.28 0.08,2.15 0.23,3.25 0.47,3.25 0.66,0 1.67,-1.31 2.96,-3.88 1.28,-2.57 2.72,-5.76 4.32,-9.64 1.59,-3.94 3.27,-8.13 5.02,-12.64 1.75,-4.45 3.42,-8.65 5.02,-12.42 2.68,-6.03 5.49,-11.85 8.45,-17.41 2.95,-5.61 5.91,-10.53 8.83,-14.78 2.92,-4.25 5.72,-7.6 8.37,-10.12 2.69,-2.51 5.02,-3.77 7.08,-3.77 1.44,0 2.92,0.21 4.44,0.63 1.52,0.42 3,0.99 4.4,1.78 1.4,0.73 2.68,1.68 3.81,2.72 1.13,1.11 2.03,2.31 2.65,3.62 1.29,2.78 2.22,5.82 2.84,9.07 0.59,3.3 1.05,6.92 1.29,10.91 0.27,3.98 0.46,8.38 0.58,13.21 0.12,4.82 0.39,10.11 0.86,15.98 0.85,10.65 2.06,18.98 3.66,25.01 1.59,6.08 3.85,9.07 6.85,9.07 1.28,0 2.96,-0.63 5.06,-1.89 2.1,-1.31 4.35,-2.93 6.85,-4.92 2.45,-2 5.02,-4.25 7.63,-6.71 2.6,-2.47 5.06,-4.88 7.35,-7.34 2.53,-2.68 4.91,-5.4 7.2,-8.23 2.26,-2.84 4.52,-5.72 6.78,-8.71 2.25,-2.93 4.51,-6.03 6.85,-9.28 2.29,-3.19 4.75,-6.6 7.35,-10.22 1.6,-2.15 3.43,-3.2 5.45,-3.2 2.45,0 3.66,2.36 3.66,7.08zm71.46 -90.64c0,4.09 -0.66,8.65 -2.02,13.58 -1.36,4.98 -3.27,10.06 -5.64,15.31 -2.42,5.24 -5.22,10.38 -8.41,15.51 -3.19,5.09 -6.66,9.86 -10.35,14.26 2.8,1.37 5.25,3.31 7.35,5.87 2.07,2.52 3.85,5.46 5.3,8.65 1.44,3.25 2.64,6.66 3.58,10.28 0.97,3.67 1.71,7.29 2.22,10.9 0.54,3.67 0.89,7.13 1.09,10.38 0.19,3.31 0.31,6.19 0.31,8.76 0,11.58 -1.48,22.38 -4.4,32.39 -2.92,10.07 -6.74,18.77 -11.41,26.22 -4.67,7.39 -9.96,13.26 -15.84,17.51 -5.91,4.24 -11.83,6.34 -17.75,6.34 -1.28,0 -3.07,-0.1 -5.37,-0.37 -2.26,-0.26 -4.79,-1.05 -7.51,-2.36 -2.73,-1.36 -5.53,-3.4 -8.37,-6.23 -2.88,-2.84 -5.45,-6.71 -7.71,-11.75 -2.29,-5.03 -4.16,-11.37 -5.64,-19.13 -1.48,-7.71 -2.22,-17.09 -2.22,-28.15 0,-14.37 0.86,-28.31 2.61,-41.94 1.75,-13.63 4.2,-26.48 7.32,-38.59 3.11,-12.05 6.81,-23.12 11.09,-33.13 4.32,-10.06 8.99,-18.71 14.09,-26 5.1,-7.23 10.51,-12.9 16.19,-16.93 5.72,-4.04 11.52,-6.08 17.44,-6.08 3.5,0 6.73,0.73 9.65,2.15 2.92,1.41 5.45,3.61 7.59,6.55 2.11,2.88 3.78,6.55 5.02,10.9 1.21,4.35 1.79,9.39 1.79,15.1zm-28.95 115.96c0,-3.98 -0.35,-8.23 -1.13,-12.69 -0.74,-4.45 -1.72,-8.49 -2.92,-12.21 -1.17,-3.67 -2.45,-6.71 -3.86,-9.12 -1.4,-2.41 -2.76,-3.62 -4.04,-3.62 0,0 -1.02,0.95 -2.96,2.78 -1.99,1.83 -4.44,4.14 -7.36,6.81 -2.96,2.73 -6.03,5.61 -9.3,8.6 -3.27,3.04 -6.19,5.77 -8.8,8.23 -0.08,1.05 -0.19,2.47 -0.35,4.25 -0.12,1.78 -0.27,3.72 -0.43,5.77 -0.15,2.04 -0.27,4.03 -0.35,6.03 -0.07,1.99 -0.11,3.77 -0.11,5.29 0,9.33 0.5,16.93 1.55,22.8 1.02,5.93 2.3,10.49 3.82,13.79 1.52,3.25 3.19,5.5 5.06,6.76 1.87,1.21 3.58,1.84 5.18,1.84 4.04,0 7.66,-1.78 10.89,-5.4 3.23,-3.57 5.96,-8.07 8.22,-13.53 2.25,-5.4 3.97,-11.37 5.13,-17.87 1.17,-6.5 1.76,-12.69 1.76,-18.51zm7.55 -114.12c0,-3.26 -0.43,-5.93 -1.29,-7.92 -0.82,-1.99 -2.06,-2.99 -3.73,-2.99 -3.43,0 -6.93,1.99 -10.51,5.93 -3.58,3.93 -7.05,9.54 -10.47,16.82 -3.43,7.29 -6.7,16.04 -9.81,26.32 -3.12,10.33 -5.92,21.81 -8.33,34.49 4.08,-4.4 7.78,-8.54 11.01,-12.37 3.23,-3.82 6.19,-7.6 8.96,-11.37 2.72,-3.73 5.33,-7.45 7.78,-11.12 2.49,-3.67 5.02,-7.6 7.59,-11.69 0.86,-1.2 1.75,-2.93 2.72,-5.13 1.02,-2.21 1.95,-4.57 2.89,-7.13 0.89,-2.57 1.67,-5.09 2.25,-7.55 0.63,-2.41 0.94,-4.56 0.94,-6.29zm84.27 126.55c2.29,-3.36 4.71,-7.5 7.31,-12.38 2.57,-4.82 5.06,-10.11 7.48,-15.78 2.37,-5.71 4.51,-11.63 6.38,-17.92 1.83,-6.24 3.19,-12.38 4.05,-18.41 -0.47,-2.35 -1.13,-3.93 -2.03,-4.66 -0.85,-0.79 -1.71,-1.15 -2.56,-1.15 -1.68,0 -3.43,0.42 -5.34,1.36 -1.9,0.89 -3.69,1.94 -5.37,3.04 -2.06,1.36 -4.51,3.83 -7.35,7.5 -2.85,3.61 -5.76,7.96 -8.8,13.05 -3,5.03 -5.96,10.59 -8.88,16.62 -2.92,6.08 -5.56,12.11 -7.86,18.14 -2.33,6.03 -4.2,11.84 -5.6,17.45 -1.4,5.56 -2.11,10.44 -2.11,14.63 0,1.15 0.08,2.31 0.16,3.56 0.12,1.21 0.31,2.36 0.55,3.36 0.19,1.05 0.5,1.89 0.89,2.57 0.39,0.63 0.9,0.99 1.48,0.99 0.62,0 1.79,-0.78 3.5,-2.3 1.68,-1.57 3.78,-3.72 6.27,-6.45 2.45,-2.78 5.22,-6.13 8.33,-10.07 3.07,-3.93 6.23,-8.33 9.5,-13.15zm114.51 -38.06c1.05,-1.68 2.18,-3.15 3.39,-4.46 1.24,-1.36 2.57,-1.99 4,-1.99 1.45,0 2.46,0.63 3.08,1.89 0.62,1.31 0.89,3.56 0.89,6.86 0,2.73 -0.34,5.82 -1.05,9.12 -0.74,3.36 -1.75,6.14 -3.03,8.39 -1.6,2.62 -3.54,5.72 -5.88,9.12 -2.3,3.41 -4.86,7.03 -7.71,10.75 -2.8,3.72 -5.76,7.5 -8.87,11.22 -3.11,3.72 -6.23,7.29 -9.3,10.69 -3.08,3.36 -6.08,6.45 -9,9.18 -2.95,2.78 -5.64,4.98 -8.17,6.6 -2.96,1.94 -5.68,3.62 -8.13,4.93 -2.49,1.36 -4.95,2.47 -7.36,3.31 -2.45,0.89 -4.91,1.51 -7.43,1.93 -2.5,0.42 -5.22,0.58 -8.22,0.58 -3.38,0 -6.46,-1.05 -9.15,-3.2 -2.72,-2.15 -5.02,-5.19 -6.96,-9.07 -1.95,-3.88 -3.47,-8.59 -4.52,-14.05 -1.05,-5.45 -1.59,-11.53 -1.59,-18.19 -2.57,4.2 -5.37,8.5 -8.33,12.9 -2.96,4.4 -6.04,8.65 -9.19,12.84 -3.15,4.14 -6.3,8.02 -9.46,11.64 -3.15,3.67 -6.15,6.87 -9.07,9.59 -2.88,2.78 -5.56,4.98 -8.09,6.56 -2.49,1.57 -4.67,2.36 -6.5,2.36 -3.93,0 -7.36,-0.89 -10.2,-2.78 -2.84,-1.84 -5.18,-4.2 -7.01,-7.13 -1.83,-2.89 -3.19,-6.19 -4.05,-9.8 -0.85,-3.67 -1.32,-7.19 -1.32,-10.7 0,-1.62 0.08,-3.67 0.2,-6.08 0.11,-2.36 0.27,-4.82 0.5,-7.34 0.24,-2.52 0.51,-4.98 0.86,-7.44 0.35,-2.47 0.74,-4.62 1.21,-6.45 1.28,-6.19 3.11,-12.58 5.45,-19.29 2.37,-6.71 5.06,-13.37 8.09,-19.98 3.04,-6.6 6.34,-13 9.89,-19.29 3.5,-6.24 7.16,-11.9 10.93,-17.04 3.78,-5.08 7.52,-9.49 11.29,-13.1 3.78,-3.67 7.36,-6.24 10.78,-7.76 0.82,-0.63 2.03,-1.26 3.55,-1.84 1.51,-0.63 3.15,-1.2 4.9,-1.73 1.75,-0.47 3.43,-0.89 5.06,-1.2 1.64,-0.32 2.96,-0.47 3.93,-0.47 1.99,0 3.78,0.52 5.41,1.57 1.64,1 3.08,2.36 4.32,4.14 1.29,1.73 2.34,3.67 3.16,5.82 0.85,2.15 1.4,4.4 1.71,6.76 1.36,0.11 2.68,0.42 4.01,0.89 1.28,0.53 2.45,1.26 3.46,2.15 1.01,0.95 1.87,2.1 2.49,3.46 0.66,1.42 0.98,2.99 0.98,4.72 0,1 -0.12,2.46 -0.39,4.3 -0.27,1.83 -0.59,3.83 -0.98,5.98 -0.39,2.15 -0.81,4.35 -1.36,6.65 -0.54,2.31 -1.01,4.51 -1.48,6.56 -0.46,2.04 -0.93,4.56 -1.36,7.6 -0.47,3.04 -0.9,6.13 -1.28,9.38 -0.35,3.2 -0.67,6.4 -0.9,9.49 -0.23,3.15 -0.35,5.87 -0.35,8.23 0,10.54 0.9,18.35 2.65,23.33 1.75,5.03 4.59,7.55 8.52,7.55 1.91,0 4.32,-0.79 7.24,-2.31 2.96,-1.52 6.19,-3.67 9.77,-6.39 3.58,-2.68 7.36,-5.88 11.4,-9.6 4.01,-3.67 8.06,-7.7 12.07,-12.05 4.05,-4.36 7.98,-8.92 11.84,-13.74 3.81,-4.82 7.39,-9.7 10.66,-14.57z"/>
  </g>
 </g>
</svg>
